<svg aria-hidden="true" xmlns="http://www.w3.org/2000/svg" xmlns:xlink="http://www.w3.org/1999/xlink"><symbol viewBox="0 0 10 10" fill="none" id="arrow" xmlns="http://www.w3.org/2000/svg">
<path d="M9.93334 0.516667C9.84878 0.313042 9.68697 0.151229 9.48334 0.0666666C9.38316 0.0239658 9.27557 0.00131666 9.16668 0H0.833343C0.61233 0 0.400368 0.0877975 0.244088 0.244078C0.0878077 0.400358 1.01719e-05 0.61232 1.01719e-05 0.833333C1.01719e-05 1.05435 0.0878077 1.26631 0.244088 1.42259C0.400368 1.57887 0.61233 1.66667 0.833343 1.66667H7.15834L0.241677 8.575C0.16357 8.65247 0.101575 8.74464 0.0592675 8.84619C0.0169603 8.94774 -0.00482178 9.05666 -0.00482178 9.16667C-0.00482178 9.27668 0.0169603 9.3856 0.0592675 9.48715C0.101575 9.5887 0.16357 9.68086 0.241677 9.75833C0.319146 9.83644 0.411313 9.89844 0.512863 9.94074C0.614412 9.98305 0.723334 10.0048 0.833343 10.0048C0.943353 10.0048 1.05227 9.98305 1.15382 9.94074C1.25537 9.89844 1.34754 9.83644 1.42501 9.75833L8.33334 2.84167V9.16667C8.33334 9.38768 8.42114 9.59964 8.57742 9.75592C8.7337 9.9122 8.94566 10 9.16668 10C9.38769 10 9.59965 9.9122 9.75593 9.75592C9.91221 9.59964 10 9.38768 10 9.16667V0.833333C9.99869 0.724436 9.97604 0.616852 9.93334 0.516667Z" fill="currentColor"/>
</symbol><symbol viewBox="0 0 20 20" fill="none" id="computer" xmlns="http://www.w3.org/2000/svg">
<path d="M18.1829 14.1667H1.51628C1.29526 14.1667 1.0833 14.2545 0.927023 14.4107C0.770743 14.567 0.682945 14.779 0.682945 15C0.682945 15.221 0.770743 15.433 0.927023 15.5892C1.0833 15.7455 1.29526 15.8333 1.51628 15.8333H18.1829C18.404 15.8333 18.6159 15.7455 18.7722 15.5892C18.9285 15.433 19.0163 15.221 19.0163 15C19.0163 14.779 18.9285 14.567 18.7722 14.4107C18.6159 14.2545 18.404 14.1667 18.1829 14.1667ZM18.1829 17.5H1.51628C1.29526 17.5 1.0833 17.5878 0.927023 17.7441C0.770743 17.9004 0.682945 18.1123 0.682945 18.3333C0.682945 18.5543 0.770743 18.7663 0.927023 18.9226C1.0833 19.0789 1.29526 19.1667 1.51628 19.1667H18.1829C18.404 19.1667 18.6159 19.0789 18.7722 18.9226C18.9285 18.7663 19.0163 18.5543 19.0163 18.3333C19.0163 18.1123 18.9285 17.9004 18.7722 17.7441C18.6159 17.5878 18.404 17.5 18.1829 17.5ZM4.84961 5.83333C4.68479 5.83333 4.52368 5.8822 4.38664 5.97377C4.2496 6.06534 4.14278 6.19549 4.07971 6.34776C4.01664 6.50003 4.00014 6.66759 4.03229 6.82924C4.06444 6.99089 4.14381 7.13937 4.26036 7.25592C4.3769 7.37246 4.52539 7.45183 4.68704 7.48398C4.84869 7.51614 5.01624 7.49963 5.16851 7.43656C5.32079 7.37349 5.45093 7.26668 5.5425 7.12964C5.63407 6.9926 5.68294 6.83148 5.68294 6.66666C5.68294 6.44565 5.59515 6.23369 5.43887 6.07741C5.28259 5.92113 5.07063 5.83333 4.84961 5.83333ZM16.5163 0.833328H3.18295C2.5199 0.833328 1.88402 1.09672 1.41518 1.56556C0.946337 2.0344 0.682945 2.67029 0.682945 3.33333V9.99999C0.682945 10.663 0.946337 11.2989 1.41518 11.7678C1.88402 12.2366 2.5199 12.5 3.18295 12.5H16.5163C17.1793 12.5 17.8152 12.2366 18.284 11.7678C18.7529 11.2989 19.0163 10.663 19.0163 9.99999V3.33333C19.0163 2.67029 18.7529 2.0344 18.284 1.56556C17.8152 1.09672 17.1793 0.833328 16.5163 0.833328ZM17.3496 9.99999C17.3496 10.221 17.2618 10.433 17.1055 10.5892C16.9493 10.7455 16.7373 10.8333 16.5163 10.8333H3.18295C2.96193 10.8333 2.74997 10.7455 2.59369 10.5892C2.43741 10.433 2.34961 10.221 2.34961 9.99999V3.33333C2.34961 3.11231 2.43741 2.90035 2.59369 2.74407C2.74997 2.58779 2.96193 2.49999 3.18295 2.49999H16.5163C16.7373 2.49999 16.9493 2.58779 17.1055 2.74407C17.2618 2.90035 17.3496 3.11231 17.3496 3.33333V9.99999ZM9.84961 4.16666C9.35516 4.16666 8.87181 4.31328 8.46069 4.58799C8.04956 4.86269 7.72913 5.25314 7.53991 5.70995C7.35069 6.16677 7.30118 6.66943 7.39765 7.15439C7.49411 7.63934 7.73221 8.0848 8.08184 8.43443C8.43148 8.78406 8.87693 9.02216 9.36189 9.11862C9.84684 9.21509 10.3495 9.16558 10.8063 8.97636C11.2631 8.78714 11.6536 8.46671 11.9283 8.05559C12.203 7.64446 12.3496 7.16111 12.3496 6.66666C12.3496 6.00362 12.0862 5.36774 11.6174 4.89889C11.1485 4.43005 10.5127 4.16666 9.84961 4.16666ZM9.84961 7.49999C9.68479 7.49999 9.52368 7.45112 9.38664 7.35955C9.24959 7.26798 9.14278 7.13784 9.07971 6.98556C9.01664 6.83329 9.00014 6.66574 9.03229 6.50409C9.06444 6.34243 9.14381 6.19395 9.26036 6.07741C9.3769 5.96086 9.52538 5.88149 9.68704 5.84934C9.84869 5.81719 10.0162 5.83369 10.1685 5.89676C10.3208 5.95983 10.4509 6.06665 10.5425 6.20369C10.6341 6.34073 10.6829 6.50184 10.6829 6.66666C10.6829 6.88767 10.5951 7.09964 10.4389 7.25592C10.2826 7.4122 10.0706 7.49999 9.84961 7.49999ZM14.8496 5.83333C14.6848 5.83333 14.5237 5.8822 14.3866 5.97377C14.2496 6.06534 14.1428 6.19549 14.0797 6.34776C14.0166 6.50003 14.0001 6.66759 14.0323 6.82924C14.0644 6.99089 14.1438 7.13937 14.2604 7.25592C14.3769 7.37246 14.5254 7.45183 14.687 7.48398C14.8487 7.51614 15.0162 7.49963 15.1685 7.43656C15.3208 7.37349 15.4509 7.26668 15.5425 7.12964C15.6341 6.9926 15.6829 6.83148 15.6829 6.66666C15.6829 6.44565 15.5951 6.23369 15.4389 6.07741C15.2826 5.92113 15.0706 5.83333 14.8496 5.83333Z" fill="currentColor"/>
</symbol><symbol viewBox="0 0 21 22" fill="none" id="facebook" xmlns="http://www.w3.org/2000/svg">
<path d="M20.6719 11.125C20.6719 16.2109 16.9395 20.4355 12.0586 21.1738V14.0781H14.4375L14.8887 11.125H12.0586V9.23828C12.0586 8.41797 12.4688 7.63867 13.7402 7.63867H15.0117V5.13672C15.0117 5.13672 13.8633 4.93164 12.7148 4.93164C10.418 4.93164 8.90039 6.36719 8.90039 8.91016V11.125H6.31641V14.0781H8.90039V21.1738C4.01953 20.4355 0.328125 16.2109 0.328125 11.125C0.328125 5.50586 4.88086 0.953125 10.5 0.953125C16.1191 0.953125 20.6719 5.50586 20.6719 11.125Z" fill="currentColor"/>
</symbol><symbol viewBox="0 0 19 20" fill="none" id="instagram" xmlns="http://www.w3.org/2000/svg">
<path d="M9.5 5.4082C12.084 5.4082 14.2168 7.54102 14.2168 10.125C14.2168 12.75 12.084 14.8418 9.5 14.8418C6.875 14.8418 4.7832 12.75 4.7832 10.125C4.7832 7.54102 6.875 5.4082 9.5 5.4082ZM9.5 13.2012C11.1816 13.2012 12.5352 11.8477 12.5352 10.125C12.5352 8.44336 11.1816 7.08984 9.5 7.08984C7.77734 7.08984 6.42383 8.44336 6.42383 10.125C6.42383 11.8477 7.81836 13.2012 9.5 13.2012ZM15.4883 5.24414C15.4883 4.62891 14.9961 4.13672 14.3809 4.13672C13.7656 4.13672 13.2734 4.62891 13.2734 5.24414C13.2734 5.85938 13.7656 6.35156 14.3809 6.35156C14.9961 6.35156 15.4883 5.85938 15.4883 5.24414ZM18.6055 6.35156C18.6875 7.86914 18.6875 12.4219 18.6055 13.9395C18.5234 15.416 18.1953 16.6875 17.1289 17.7949C16.0625 18.8613 14.75 19.1895 13.2734 19.2715C11.7559 19.3535 7.20312 19.3535 5.68555 19.2715C4.20898 19.1895 2.9375 18.8613 1.83008 17.7949C0.763672 16.6875 0.435547 15.416 0.353516 13.9395C0.271484 12.4219 0.271484 7.86914 0.353516 6.35156C0.435547 4.875 0.763672 3.5625 1.83008 2.49609C2.9375 1.42969 4.20898 1.10156 5.68555 1.01953C7.20312 0.9375 11.7559 0.9375 13.2734 1.01953C14.75 1.10156 16.0625 1.42969 17.1289 2.49609C18.1953 3.5625 18.5234 4.875 18.6055 6.35156ZM16.6367 15.5391C17.1289 14.3496 17.0059 11.4785 17.0059 10.125C17.0059 8.8125 17.1289 5.94141 16.6367 4.71094C16.3086 3.93164 15.6934 3.27539 14.9141 2.98828C13.6836 2.49609 10.8125 2.61914 9.5 2.61914C8.14648 2.61914 5.27539 2.49609 4.08594 2.98828C3.26562 3.31641 2.65039 3.93164 2.32227 4.71094C1.83008 5.94141 1.95312 8.8125 1.95312 10.125C1.95312 11.4785 1.83008 14.3496 2.32227 15.5391C2.65039 16.3594 3.26562 16.9746 4.08594 17.3027C5.27539 17.7949 8.14648 17.6719 9.5 17.6719C10.8125 17.6719 13.6836 17.7949 14.9141 17.3027C15.6934 16.9746 16.3496 16.3594 16.6367 15.5391Z" fill="currentColor"/>
</symbol><symbol viewBox="0 0 19 20" fill="none" id="linkedin" xmlns="http://www.w3.org/2000/svg">
<path d="M17.375 0.9375C18.0723 0.9375 18.6875 1.55273 18.6875 2.29102V18C18.6875 18.7383 18.0723 19.3125 17.375 19.3125H1.58398C0.886719 19.3125 0.3125 18.7383 0.3125 18V2.29102C0.3125 1.55273 0.886719 0.9375 1.58398 0.9375H17.375ZM5.84961 16.6875V7.95117H3.14258V16.6875H5.84961ZM4.49609 6.7207C5.35742 6.7207 6.05469 6.02344 6.05469 5.16211C6.05469 4.30078 5.35742 3.5625 4.49609 3.5625C3.59375 3.5625 2.89648 4.30078 2.89648 5.16211C2.89648 6.02344 3.59375 6.7207 4.49609 6.7207ZM16.0625 16.6875V11.8887C16.0625 9.55078 15.5293 7.70508 12.7812 7.70508C11.4688 7.70508 10.5664 8.44336 10.1973 9.14062H10.1562V7.95117H7.57227V16.6875H10.2793V12.3809C10.2793 11.2324 10.4844 10.125 11.9199 10.125C13.3145 10.125 13.3145 11.4375 13.3145 12.4219V16.6875H16.0625Z" fill="currentColor"/>
</symbol><symbol viewBox="0 0 44 44" fill="none" id="logo" xmlns="http://www.w3.org/2000/svg">
<path d="M22.0027 36.9206C13.76 36.9209 7.07997 30.2409 7.08027 21.9981C7.08058 13.7554 13.7611 7.07488 22.0038 7.07457C30.2466 7.07426 36.9266 13.7543 36.9263 21.997C36.9261 26.1161 35.2553 29.8486 32.556 32.548C29.8566 35.2473 26.1241 36.9181 22.005 36.9183M16.0946 2.66117L13.8393 6.9276C12.2836 9.87314 9.87424 12.2825 6.9287 13.8382L2.66227 16.0935C1.5761 16.6688 0.89492 17.7964 0.894875 19.0253L0.894653 24.976C0.894608 26.2049 1.57341 27.3347 2.66183 27.9077L6.92809 30.1626C9.87351 31.7181 12.2827 34.1273 13.8382 37.0727L16.0932 41.339C16.6684 42.4251 17.796 43.1062 19.0248 43.1062L24.9756 43.106C26.2044 43.1059 27.3343 42.427 27.9073 41.3386L30.1626 37.0721C31.7183 34.1266 34.1277 31.7172 37.0732 30.1615L41.3397 27.9062C42.4258 27.3309 43.107 26.2033 43.1071 24.9745L43.1073 19.0237C43.1073 17.7949 42.4262 16.6673 41.3401 16.0921L37.0738 13.8371C34.1284 12.2816 31.7192 9.87241 30.1637 6.92699L27.9088 2.66073C27.3335 1.57461 26.206 0.893508 24.9771 0.893555L19.0264 0.893773C18.1335 0.893806 17.2936 1.25052 16.6791 1.86495C16.449 2.09507 16.2511 2.36202 16.0923 2.65887" fill="currentColor"/>
</symbol><symbol viewBox="0 0 28 21" fill="none" id="quotes" xmlns="http://www.w3.org/2000/svg">
<path d="M0.849609 20.46V14.94H2.34961C3.86961 14.94 4.9496 14.62 5.5896 13.98C6.2696 13.34 6.6096 12.44 6.6096 11.28V9.84H1.7496V0H12.4896V11.7C12.4896 15.02 11.6896 17.32 10.0896 18.6C8.48962 19.84 6.3896 20.46 3.7896 20.46H0.849609ZM16.0896 20.46V14.94H17.5896C19.1096 14.94 20.1896 14.62 20.8296 13.98C21.5096 13.34 21.8496 12.44 21.8496 11.28V9.84H16.9896V0H27.7296V11.7C27.7296 15.02 26.9296 17.32 25.3296 18.6C23.7296 19.84 21.6296 20.46 19.0296 20.46H16.0896Z" fill="currentColor"/>
</symbol><symbol viewBox="0 0 18 16" fill="none" id="star" xmlns="http://www.w3.org/2000/svg">
<path d="M17.3333 6.05833C17.2807 5.90591 17.185 5.77202 17.0578 5.67292C16.9306 5.57381 16.7773 5.51375 16.6167 5.5L11.875 4.80833L9.75 0.499999C9.68176 0.359106 9.57522 0.240284 9.44257 0.157143C9.30993 0.074003 9.15655 0.0299072 9 0.0299072C8.84345 0.0299072 8.69007 0.074003 8.55743 0.157143C8.42478 0.240284 8.31824 0.359106 8.25 0.499999L6.125 4.8L1.38333 5.5C1.2291 5.52192 1.0841 5.58663 0.964791 5.6868C0.845479 5.78696 0.756632 5.91856 0.708332 6.06667C0.66412 6.21139 0.660152 6.36543 0.696855 6.51224C0.733559 6.65906 0.809547 6.7931 0.916666 6.9L4.35833 10.2333L3.525 14.9667C3.49525 15.1229 3.51083 15.2844 3.56989 15.432C3.62896 15.5797 3.72904 15.7074 3.85833 15.8C3.98435 15.8901 4.13298 15.9433 4.28754 15.9536C4.4421 15.9639 4.59647 15.9309 4.73333 15.8583L9 13.6333L13.25 15.8667C13.367 15.9326 13.499 15.9671 13.6333 15.9667C13.8099 15.9673 13.982 15.9119 14.125 15.8083C14.2543 15.7157 14.3544 15.588 14.4134 15.4404C14.4725 15.2927 14.4881 15.1312 14.4583 14.975L13.625 10.2417L17.0667 6.90833C17.187 6.8064 17.2759 6.67242 17.3231 6.52196C17.3703 6.37149 17.3739 6.21073 17.3333 6.05833ZM12.2083 9.39167C12.1106 9.48619 12.0375 9.6032 11.9954 9.73248C11.9532 9.86175 11.9434 9.99937 11.9667 10.1333L12.5667 13.625L9.43333 11.9583C9.31276 11.8941 9.17826 11.8606 9.04167 11.8606C8.90507 11.8606 8.77057 11.8941 8.65 11.9583L5.51667 13.625L6.11667 10.1333C6.13995 9.99937 6.13009 9.86175 6.08797 9.73248C6.04585 9.6032 5.97273 9.48619 5.875 9.39167L3.375 6.89167L6.88333 6.38333C7.01833 6.36455 7.14666 6.31295 7.25708 6.23304C7.3675 6.15313 7.45663 6.04736 7.51667 5.925L9 2.75L10.5667 5.93333C10.6267 6.0557 10.7158 6.16147 10.8263 6.24138C10.9367 6.32128 11.065 6.37289 11.2 6.39167L14.7083 6.9L12.2083 9.39167Z" fill="currentColor"/>
</symbol><symbol viewBox="0 0 18 18" fill="none" id="victories" xmlns="http://www.w3.org/2000/svg">
<path d="M16.3496 2.33334H13.8496V1.50001C13.8496 1.27899 13.7618 1.06703 13.6056 0.910749C13.4493 0.754469 13.2373 0.666672 13.0163 0.666672H4.68296C4.46195 0.666672 4.24999 0.754469 4.09371 0.910749C3.93743 1.06703 3.84963 1.27899 3.84963 1.50001V2.33334H1.34963C1.12862 2.33334 0.916654 2.42114 0.760374 2.57742C0.604094 2.7337 0.516296 2.94566 0.516296 3.16667V5.66667C0.516296 6.55073 0.867486 7.39857 1.49261 8.02369C2.11773 8.64882 2.96557 9.00001 3.84963 9.00001H5.13296C5.88674 9.84096 6.90301 10.402 8.0163 10.5917V12.3333H7.18296C6.51992 12.3333 5.88404 12.5967 5.4152 13.0656C4.94636 13.5344 4.68296 14.1703 4.68296 14.8333V16.5C4.68296 16.721 4.77076 16.933 4.92704 17.0893C5.08332 17.2455 5.29528 17.3333 5.5163 17.3333H12.183C12.404 17.3333 12.6159 17.2455 12.7722 17.0893C12.9285 16.933 13.0163 16.721 13.0163 16.5V14.8333C13.0163 14.1703 12.7529 13.5344 12.2841 13.0656C11.8152 12.5967 11.1793 12.3333 10.5163 12.3333H9.68296V10.5917C10.7962 10.402 11.8125 9.84096 12.5663 9.00001H13.8496C14.7337 9.00001 15.5815 8.64882 16.2067 8.02369C16.8318 7.39857 17.183 6.55073 17.183 5.66667V3.16667C17.183 2.94566 17.0952 2.7337 16.9389 2.57742C16.7826 2.42114 16.5706 2.33334 16.3496 2.33334ZM3.84963 7.33334C3.4076 7.33334 2.98368 7.15774 2.67112 6.84518C2.35856 6.53262 2.18296 6.1087 2.18296 5.66667V4.00001H3.84963V5.66667C3.85146 6.23476 3.9501 6.79839 4.1413 7.33334H3.84963ZM10.5163 14C10.7373 14 10.9493 14.0878 11.1056 14.2441C11.2618 14.4004 11.3496 14.6123 11.3496 14.8333V15.6667H6.34963V14.8333C6.34963 14.6123 6.43743 14.4004 6.59371 14.2441C6.74999 14.0878 6.96195 14 7.18296 14H10.5163ZM12.183 5.66667C12.183 6.55073 11.8318 7.39857 11.2067 8.02369C10.5815 8.64882 9.73369 9.00001 8.84963 9.00001C7.96558 9.00001 7.11773 8.64882 6.49261 8.02369C5.86749 7.39857 5.5163 6.55073 5.5163 5.66667V2.33334H12.183V5.66667ZM15.5163 5.66667C15.5163 6.1087 15.3407 6.53262 15.0281 6.84518C14.7156 7.15774 14.2917 7.33334 13.8496 7.33334H13.558C13.7492 6.79839 13.8478 6.23476 13.8496 5.66667V4.00001H15.5163V5.66667Z" fill="currentColor"/>
<defs>
<linearGradient id="ipaint0_linear_3_184" x1="65.8503" y1="39" x2="68.9201" y2="-1.27845" gradientUnits="userSpaceOnUse">
<stop stop-color="#0103FF"/>
<stop offset="1" stop-color="#01E4FF"/>
</linearGradient>
</defs>
</symbol><symbol viewBox="0 0 24 16" fill="none" id="youtube" xmlns="http://www.w3.org/2000/svg">
<path d="M22.7051 2.75195C23.1973 4.47461 23.1973 8.16602 23.1973 8.16602C23.1973 8.16602 23.1973 11.8164 22.7051 13.5801C22.459 14.5645 21.6797 15.3027 20.7363 15.5488C18.9727 16 12 16 12 16C12 16 4.98633 16 3.22266 15.5488C2.2793 15.3027 1.5 14.5645 1.25391 13.5801C0.761719 11.8164 0.761719 8.16602 0.761719 8.16602C0.761719 8.16602 0.761719 4.47461 1.25391 2.75195C1.5 1.76758 2.2793 0.988281 3.22266 0.742188C4.98633 0.25 12 0.25 12 0.25C12 0.25 18.9727 0.25 20.7363 0.742188C21.6797 0.988281 22.459 1.76758 22.7051 2.75195ZM9.70312 11.4883L15.5273 8.16602L9.70312 4.84375V11.4883Z" fill="currentColor"/>
</symbol></svg>