<svg width="369" height="293" viewBox="0 0 369 293" fill="none" xmlns="http://www.w3.org/2000/svg">
<g style="mix-blend-mode:plus-darker">
<path d="M54.7438 264.877C126.597 302.372 243.102 302.372 314.955 264.877C386.809 227.382 386.809 166.589 314.955 129.094C243.102 91.5994 126.597 91.5994 54.7438 129.094C-17.1096 166.589 -17.1096 227.382 54.7438 264.877Z" fill="#F5F5F5"/>
</g>
<path d="M34.6813 203.395L11.3245 189.92V139.886L34.6813 153.352V203.395Z" fill="#E0E0E0"/>
<path d="M34.6813 153.352L68.053 134.108V184.151L34.6813 203.395V153.352Z" fill="#EBEBEB"/>
<path d="M68.053 134.108L34.6813 153.352L11.3245 139.886L44.6961 120.634L68.053 134.108Z" fill="#F5F5F5"/>
<path d="M38.0168 155.281L64.7174 139.886L65.3336 140.239V158.769L38.633 174.164L38.0168 173.811V155.281Z" fill="#E0E0E0"/>
<path d="M38.633 155.634L65.3336 140.239V158.768L38.633 174.164V155.634Z" fill="#F5F5F5"/>
<path d="M49.0996 152.737L53.6429 150.119C54.2344 149.783 54.7109 149.939 54.7109 150.464C54.7109 150.989 54.2344 151.703 53.6429 152.039L49.0996 154.657C48.5081 154.994 48.0316 154.846 48.0316 154.312C48.0316 153.779 48.5081 153.073 49.0996 152.737Z" fill="#E0E0E0"/>
<path d="M37.4089 178.735L64.1013 163.331V181.869L64.7174 182.222L38.0168 197.617L37.4007 197.265L37.4089 178.735Z" fill="#E0E0E0"/>
<path d="M38.0168 179.087L64.7174 163.692V182.222L38.0168 197.617V179.087Z" fill="#F5F5F5"/>
<path d="M48.4835 176.191L53.0267 173.573C53.6182 173.236 54.0947 173.392 54.0947 173.917C54.0947 174.443 53.6182 175.157 53.0267 175.493L48.4835 178.111C47.892 178.447 47.4155 178.291 47.4155 177.766C47.4155 177.233 47.892 176.527 48.4835 176.191Z" fill="#E0E0E0"/>
<path d="M34.6813 150.472L11.3245 136.997V86.9546L34.6813 100.429V150.472Z" fill="#E0E0E0"/>
<path d="M34.6813 100.429L68.053 81.1855V131.22L34.6813 150.472V100.429Z" fill="#EBEBEB"/>
<path d="M68.053 81.1855L34.6813 100.429L11.3245 86.9546L44.6961 67.7107L68.053 81.1855Z" fill="#F5F5F5"/>
<path d="M38.0168 102.35L64.7174 86.9546L65.3336 87.3157L65.3254 105.846L38.633 121.241L38.0168 120.888V102.35Z" fill="#E0E0E0"/>
<path d="M49.0996 99.814L53.6429 97.1961C54.2344 96.8597 54.7109 97.0074 54.7109 97.5408C54.7109 98.0742 54.2344 98.78 53.6429 99.1164L49.0996 101.734C48.5081 102.071 48.0316 101.923 48.0316 101.39C48.0316 100.856 48.5081 100.15 49.0996 99.814Z" fill="#E0E0E0"/>
<path d="M37.4007 125.804L64.1013 110.408V128.947L64.7174 129.299L38.0168 144.695L37.4007 144.342V125.804Z" fill="#E0E0E0"/>
<path d="M38.0168 126.165L64.7174 110.761V129.299L38.0168 144.695V126.165Z" fill="#F5F5F5"/>
<path d="M48.4835 123.268L53.0267 120.65C53.6182 120.313 54.0947 120.461 54.0947 120.995C54.0947 121.528 53.6182 122.234 53.0267 122.57L48.4835 125.188C47.892 125.525 47.4155 125.377 47.4155 124.843C47.4155 124.31 47.892 123.604 48.4835 123.268Z" fill="#E0E0E0"/>
<path d="M38.0168 102.35L64.7174 86.9546V105.493L38.0168 120.888V102.35Z" fill="#E0E0E0"/>
<path d="M78.0677 96.1129L63.4522 87.6849V104.016L78.0677 112.444V96.1129Z" fill="#E0E0E0"/>
<path d="M48.0316 123.522V100.429L53.7579 97.114L54.7027 98.5009L71.3885 88.8831V110.055L48.0316 123.522Z" fill="#EBEBEB"/>
<path d="M48.0316 123.522L49.6994 103.318L73.0562 89.8432L71.3885 110.055L48.0316 123.522Z" fill="#F5F5F5"/>
<path d="M51.3671 111.508L38.633 104.163V120.494L51.3671 127.839V111.508Z" fill="#EBEBEB"/>
<path d="M51.3671 110.056L78.0677 94.6522L78.0595 113.19L51.3671 128.585V110.056Z" fill="#F5F5F5"/>
<path d="M61.8338 107.159L66.377 104.541C66.9685 104.204 67.445 104.352 67.445 104.885C67.445 105.419 66.9685 106.125 66.377 106.461L61.8338 109.079C61.2423 109.415 60.7658 109.268 60.7658 108.734C60.7658 108.201 61.2423 107.495 61.8338 107.159Z" fill="#E0E0E0"/>
<path d="M51.3671 110.056L50.4799 109.539V128.068L51.3671 128.585V110.056Z" fill="#E0E0E0"/>
<path d="M50.4799 109.539L77.1722 94.1434L78.0677 94.6522L51.3671 110.056L50.4799 109.539Z" fill="#EBEBEB"/>
<path d="M310.626 173.072L287.261 159.606V109.563L310.626 123.038V173.072Z" fill="#E0E0E0"/>
<path d="M310.626 123.038L343.998 103.794V153.828L310.626 173.072V123.038Z" fill="#EBEBEB"/>
<path d="M343.998 103.794L310.626 123.038L287.261 109.563L320.632 90.3192L343.998 103.794Z" fill="#F5F5F5"/>
<path d="M313.961 124.958L340.662 109.563L341.27 109.916V128.454L314.578 143.849L313.961 143.496V124.958Z" fill="#E0E0E0"/>
<path d="M314.578 125.311L341.27 109.916V128.454L314.578 143.849V125.311Z" fill="#F5F5F5"/>
<path d="M325.044 122.422L329.587 119.805C330.179 119.468 330.655 119.616 330.655 120.149C330.655 120.683 330.179 121.388 329.587 121.725L325.044 124.343C324.453 124.679 323.976 124.532 323.976 123.998C323.976 123.465 324.453 122.759 325.044 122.422Z" fill="#E0E0E0"/>
<path d="M313.345 148.412L340.046 133.017V151.547L340.662 151.908L313.961 167.303L313.345 166.95V148.412Z" fill="#E0E0E0"/>
<path d="M313.961 148.765L340.662 133.37V151.908L313.961 167.303V148.765Z" fill="#F5F5F5"/>
<path d="M324.428 145.876L328.971 143.258C329.563 142.922 330.039 143.078 330.039 143.603C330.039 144.128 329.563 144.842 328.971 145.179L324.428 147.797C323.837 148.133 323.36 147.985 323.36 147.452C323.36 146.918 323.837 146.213 324.428 145.876Z" fill="#E0E0E0"/>
<path d="M88.3537 225.38C88.3537 225.38 88.4522 212.364 80.2367 202.607C72.9577 193.966 69.0881 188.484 71.3885 185.956C73.6889 183.429 78.6018 182.821 85.2482 189.805C91.8946 196.789 92.4121 216.164 91.492 220.546L88.3454 225.38H88.3537Z" fill="#5676FF"/>
<path opacity="0.2" d="M88.3537 225.38C88.3537 225.38 88.4522 212.364 80.2367 202.607C72.9577 193.966 69.0881 188.484 71.3885 185.956C73.6889 183.429 78.6018 182.821 85.2482 189.805C91.8946 196.789 92.4121 216.164 91.492 220.546L88.3454 225.38H88.3537Z" fill="#0A0B5C"/>
<path d="M89.7749 211.388C89.586 211.388 89.4135 211.256 89.3724 211.059C86.4969 197.626 79.1111 190.199 74.9705 186.966C74.7897 186.826 74.7569 186.572 74.8965 186.391C75.0362 186.211 75.2909 186.178 75.4716 186.317C79.7027 189.616 87.2446 197.199 90.1693 210.887C90.2186 211.109 90.0789 211.33 89.8571 211.371C89.8242 211.371 89.7996 211.38 89.7749 211.38V211.388Z" fill="white"/>
<path d="M88.0743 230.221L84.7388 232.15C84.7388 232.15 83.8844 229.155 80.2367 228.301C76.589 227.448 72.7851 227.62 70.2301 224.452C67.6751 221.285 70.7888 217.846 70.2301 215.507C69.6714 213.177 69.3017 212.504 64.7257 210.173C60.1414 207.843 58.334 203.977 61.7845 201.351C65.235 198.725 70.8381 200.654 74.2064 202.952C77.2133 205.003 80.0724 205.545 83.4325 205.955C86.7845 206.365 92.2643 208.245 91.4263 216.033C90.5883 223.829 88.0908 230.213 88.0908 230.213L88.0743 230.221Z" fill="#5676FF"/>
<path d="M75.2252 219.963C75.0526 219.963 74.8883 219.857 74.8308 219.676C74.7651 219.463 74.8801 219.225 75.0937 219.159C75.3977 219.061 82.5042 216.82 85.5111 219.233C85.6918 219.372 85.7165 219.635 85.5768 219.807C85.4371 219.988 85.1742 220.013 85.0017 219.873C82.3399 217.739 75.4223 219.922 75.3484 219.947C75.3073 219.963 75.2663 219.963 75.2252 219.963Z" fill="white"/>
<path d="M88.4522 229.589C88.2468 229.589 88.0661 229.434 88.0415 229.22C86.2094 211.938 65.3665 203.739 65.1611 203.657C64.9475 203.575 64.8407 203.337 64.9228 203.124C65.005 202.911 65.2433 202.804 65.4569 202.886C65.6705 202.968 86.9816 211.347 88.863 229.13C88.8877 229.351 88.7233 229.557 88.5015 229.581C88.4851 229.581 88.4687 229.581 88.4604 229.581L88.4522 229.589Z" fill="white"/>
<path d="M292.798 218.855C292.897 218.576 296.413 200.449 292.798 187.597C289.479 175.813 285.223 171.464 279.111 170.504C272.999 169.543 270.345 173.942 273.59 179.892C276.835 185.85 284.64 193.76 286.562 207.071C287.351 212.553 288.008 217.313 288.008 217.313L292.79 218.855H292.798Z" fill="#5676FF"/>
<path opacity="0.2" d="M292.798 218.855C292.897 218.576 296.413 200.449 292.798 187.597C289.479 175.813 285.223 171.464 279.111 170.504C272.999 169.543 270.345 173.942 273.59 179.892C276.835 185.85 284.64 193.76 286.562 207.071C287.351 212.553 288.008 217.313 288.008 217.313L292.79 218.855H292.798Z" fill="#0A0B5C"/>
<path d="M290.736 208.45C290.736 208.45 290.72 208.45 290.711 208.45C290.481 208.433 290.309 208.245 290.325 208.015C291.163 193.342 286.349 180.245 277.747 173.819C277.566 173.679 277.525 173.425 277.665 173.245C277.796 173.064 278.059 173.023 278.24 173.162C287.055 179.744 292.001 193.112 291.147 208.056C291.139 208.278 290.95 208.442 290.736 208.442V208.45Z" fill="white"/>
<path d="M302.254 228.293C301.786 224.92 303.725 219.865 308.334 218.667C312.943 217.477 314.997 214.826 313.337 211.938C311.669 209.049 312.064 206.398 316.245 205.2C320.427 204.002 324.091 201.901 321.684 197.503C319.934 194.31 319.548 192.25 323.837 185.956C327.394 180.737 324.486 177.676 320.033 178.259C315.58 178.841 312.828 184.126 310.051 185.021C307.274 185.915 306.617 181.172 302.944 183.289C299.272 185.406 299.502 190.831 299.379 194.614C299.264 198.397 299.017 199.251 295.698 198.791C292.379 198.331 289.134 198.873 289.2 206.891C289.257 213.768 292.93 222.286 292.93 222.286L302.254 228.293Z" fill="#5676FF"/>
<path d="M296.429 223.164C296.429 223.164 296.397 223.164 296.38 223.164C296.158 223.139 295.994 222.934 296.019 222.713C298.335 202.032 316.097 184.602 320.731 181.065C320.912 180.926 321.166 180.959 321.306 181.139C321.446 181.32 321.413 181.574 321.232 181.714C316.664 185.201 299.124 202.41 296.84 222.803C296.815 223.016 296.635 223.164 296.429 223.164Z" fill="white"/>
<path d="M304.53 201.072C304.366 201.072 304.21 200.974 304.144 200.802C304.062 200.588 304.177 200.35 304.382 200.276C311.012 197.814 318.513 198.972 318.833 199.021C319.055 199.054 319.211 199.267 319.17 199.488C319.137 199.71 318.915 199.858 318.702 199.833C318.628 199.817 311.086 198.66 304.67 201.04C304.62 201.056 304.571 201.064 304.53 201.064V201.072Z" fill="white"/>
<path d="M298.631 213.489C298.516 213.489 298.401 213.439 298.327 213.349C293.907 208.351 292.954 202.385 292.913 202.131C292.88 201.909 293.036 201.696 293.258 201.663C293.488 201.63 293.694 201.786 293.726 202.008C293.735 202.065 294.688 207.99 298.943 212.807C299.091 212.98 299.075 213.234 298.91 213.39C298.837 213.456 298.738 213.489 298.639 213.489H298.631Z" fill="white"/>
<path d="M88.0743 103.203V230.221L218.225 155.166V39.686L121.446 95.4975L118.11 85.8797L88.0743 103.203Z" fill="#5676FF"/>
<path opacity="0.7" d="M88.0743 103.203V230.221L218.225 155.166V39.686L121.446 95.4975L118.11 85.8797L88.0743 103.203Z" fill="#0A0B5C"/>
<path d="M88.0743 230.221L94.7536 114.75L224.905 39.686L218.225 155.166L88.0743 230.221Z" fill="#E0E0E0"/>
<path d="M88.0743 230.221L98.0891 116.67L228.24 41.6145L218.225 155.166L88.0743 230.221Z" fill="#5676FF"/>
<path opacity="0.7" d="M88.0743 230.221L98.0891 116.67L228.24 41.6145L218.225 155.166L88.0743 230.221Z" fill="#0A0B5C"/>
<path d="M108.104 114.75V241.768L238.255 166.712V51.2323L141.476 107.052L138.14 97.4259L108.104 114.75Z" fill="#5676FF"/>
<path opacity="0.5" d="M108.104 114.75V241.768L238.255 166.712V51.2323L141.476 107.052L138.14 97.4259L108.104 114.75Z" fill="#0A0B5C"/>
<path d="M108.104 241.768L114.775 126.296L244.926 51.2323L238.255 166.712L108.104 241.768Z" fill="#E0E0E0"/>
<path d="M108.104 241.768L118.11 128.216L248.261 53.1608L238.255 166.712L108.104 241.768Z" fill="#5676FF"/>
<path opacity="0.5" d="M108.104 241.768L118.11 128.216L248.261 53.1608L238.255 166.712L108.104 241.768Z" fill="#0A0B5C"/>
<path d="M218.225 282.184C194.868 268.709 173.196 254.069 163.296 236.877L193.332 219.553L218.225 282.184Z" fill="#E0E0E0"/>
<path d="M131.461 128.216V255.242L261.612 180.179V64.7072L164.832 120.519L161.497 110.901L131.461 128.216Z" fill="#5676FF"/>
<path opacity="0.2" d="M131.461 128.216V255.242L261.612 180.179V64.7072L164.832 120.519L161.497 110.901L131.461 128.216Z" fill="#0A0B5C"/>
<path d="M168.957 165.777C168.628 165.777 168.579 165.399 168.579 165.169V56.8291C168.579 56.0659 169.137 55.1058 169.795 54.7201L263.731 0.549848C263.887 0.459578 264.035 0.410339 264.159 0.410339C264.487 0.410339 264.536 0.787832 264.536 1.01761V109.358C264.536 110.121 263.978 111.081 263.321 111.467L169.384 165.637C169.228 165.728 169.08 165.777 168.957 165.777Z" fill="white"/>
<path d="M264.109 0.828843C264.109 0.828843 264.134 0.927319 264.134 1.01759V109.358C264.134 109.965 263.649 110.802 263.123 111.106L169.187 165.276C169.113 165.317 169.055 165.342 169.014 165.35C169.006 165.309 168.998 165.252 168.998 165.161V56.8291C168.998 56.2218 169.482 55.3847 170.008 55.0811L263.937 0.9027C264.011 0.861668 264.068 0.837049 264.109 0.828843ZM264.159 0C263.97 0 263.748 0.0656509 263.526 0.196953L169.589 54.3672C168.8 54.8185 168.168 55.9264 168.168 56.8291V165.169C168.168 165.81 168.488 166.187 168.957 166.187C169.146 166.187 169.367 166.121 169.589 165.99L263.526 111.82C264.315 111.369 264.947 110.261 264.947 109.358V1.01759C264.947 0.369286 264.627 0 264.159 0Z" fill="#5676FF"/>
<path opacity="0.7" d="M264.109 0.828843C264.109 0.828843 264.134 0.927319 264.134 1.01759V109.358C264.134 109.965 263.649 110.802 263.123 111.106L169.187 165.276C169.113 165.317 169.055 165.342 169.014 165.35C169.006 165.309 168.998 165.252 168.998 165.161V56.8291C168.998 56.2218 169.482 55.3847 170.008 55.0811L263.937 0.9027C264.011 0.861668 264.068 0.837049 264.109 0.828843ZM264.159 0C263.97 0 263.748 0.0656509 263.526 0.196953L169.589 54.3672C168.8 54.8185 168.168 55.9264 168.168 56.8291V165.169C168.168 165.81 168.488 166.187 168.957 166.187C169.146 166.187 169.367 166.121 169.589 165.99L263.526 111.82C264.315 111.369 264.947 110.261 264.947 109.358V1.01759C264.947 0.369286 264.627 0 264.159 0Z" fill="white"/>
<path d="M178.183 60.9569L211.554 41.713V80.209L178.183 99.4529V60.9569Z" fill="#5676FF"/>
<path opacity="0.8" d="M178.183 60.9569L211.554 41.713V80.209L178.183 99.4529V60.9569Z" fill="white"/>
<path d="M218.225 39.7927C218.225 40.8595 219.178 41.1631 220.361 40.4902L252.805 21.7797C253.979 21.0986 254.941 19.6871 254.941 18.6202C254.941 17.5534 253.988 17.2498 252.805 17.9227L220.361 36.6332C219.178 37.3143 218.225 38.7258 218.225 39.7927Z" fill="#ACB5FF"/>
<path d="M218.225 51.339C218.225 52.4058 219.178 52.7094 220.361 52.0365L252.805 33.326C253.979 32.6449 254.941 31.2334 254.941 30.1666C254.941 29.0997 253.988 28.7961 252.805 29.469L220.361 48.1795C219.178 48.8607 218.225 50.2722 218.225 51.339Z" fill="#ACB5FF"/>
<path d="M218.225 62.8854C218.225 63.9522 219.178 64.2558 220.361 63.5829L252.805 44.8724C253.979 44.1913 254.941 42.7798 254.941 41.713C254.941 40.6461 253.988 40.3425 252.805 41.0154L220.361 59.7259C219.178 60.4071 218.225 61.8185 218.225 62.8854Z" fill="#ACB5FF"/>
<path d="M218.225 74.4317C218.225 75.4985 219.178 75.8022 220.361 75.1292L252.805 56.4187C253.979 55.7376 254.941 54.3261 254.941 53.2593C254.941 52.1925 253.988 51.8888 252.805 52.5617L220.361 71.2722C219.178 71.9534 218.225 73.3649 218.225 74.4317Z" fill="#ACB5FF"/>
<path d="M178.183 109.079C178.183 110.146 179.136 110.449 180.319 109.777L252.805 67.9733C253.979 67.2922 254.941 65.8807 254.941 64.8139C254.941 63.747 253.988 63.4434 252.805 64.1163L180.319 105.92C179.144 106.601 178.183 108.012 178.183 109.079Z" fill="#ACB5FF"/>
<path d="M178.183 120.625C178.183 121.692 179.136 121.996 180.319 121.323L252.805 79.5196C253.979 78.8385 254.941 77.427 254.941 76.3602C254.941 75.2934 253.988 74.9897 252.805 75.6626L180.319 117.466C179.144 118.147 178.183 119.558 178.183 120.625Z" fill="#ACB5FF"/>
<path d="M178.183 132.172C178.183 133.239 179.136 133.542 180.319 132.869L252.805 91.066C253.979 90.3849 254.941 88.9734 254.941 87.9066C254.941 86.8397 253.988 86.5361 252.805 87.209L180.319 129.012C179.144 129.693 178.183 131.105 178.183 132.172Z" fill="#ACB5FF"/>
<path d="M131.461 255.243L154.818 153.237L284.969 78.182L261.612 180.179L131.461 255.243Z" fill="#5676FF"/>
<path d="M163.304 161.23V236.877L193.332 219.553V143.907L163.304 161.23Z" fill="#5676FF"/>
<path opacity="0.2" d="M163.304 161.23V236.877L193.332 219.553V143.907L163.304 161.23Z" fill="#0A0B5C"/>
<path d="M218.258 281.692C215.703 279.796 191.081 260.987 178.561 234.128C165.235 205.537 165.243 172.186 165.251 159.638V159.244L254.538 107.758C254.538 120.428 254.555 153.82 267.93 182.51C280.163 208.745 303.848 227.333 307.603 230.172L218.275 281.692H218.258Z" fill="white"/>
<path d="M254.119 108.472C254.119 121.668 254.374 154.436 267.543 182.69C279.366 208.039 301.843 226.282 306.847 230.131L218.283 281.207C214.824 278.598 191.114 260.117 178.922 233.955C165.629 205.446 165.646 172.169 165.646 159.638V159.482L254.111 108.463M254.941 107.052L164.832 159.015C164.832 170.824 164.586 205.134 178.183 234.308C191.533 262.94 218.225 282.192 218.225 282.192L308.334 230.229C308.334 230.229 281.633 210.986 268.283 182.345C254.686 153.172 254.932 118.861 254.932 107.052H254.941Z" fill="#5676FF"/>
<path opacity="0.7" d="M254.119 108.472C254.119 121.668 254.374 154.436 267.543 182.69C279.366 208.039 301.843 226.282 306.847 230.131L218.283 281.207C214.824 278.598 191.114 260.117 178.922 233.955C165.629 205.446 165.646 172.169 165.646 159.638V159.482L254.111 108.463M254.941 107.052L164.832 159.015C164.832 170.824 164.586 205.134 178.183 234.308C191.533 262.94 218.225 282.192 218.225 282.192L308.334 230.229C308.334 230.229 281.633 210.986 268.283 182.345C254.686 153.172 254.932 118.861 254.932 107.052H254.941Z" fill="white"/>
<path d="M244.745 124.474L216.245 140.911C215.062 141.593 214.134 142.988 214.175 144.022C214.216 145.064 215.21 145.351 216.393 144.67L244.893 128.233C246.068 127.551 246.988 126.156 246.947 125.122C246.906 124.08 245.928 123.793 244.745 124.474Z" fill="#ACB5FF"/>
<path d="M245.353 135.668L216.853 152.105C215.67 152.786 214.783 154.157 214.865 155.174C214.956 156.183 215.991 156.454 217.166 155.773L245.665 139.336C246.84 138.655 247.719 137.284 247.629 136.275C247.538 135.265 246.52 134.995 245.345 135.676L245.353 135.668Z" fill="#ACB5FF"/>
<path d="M246.495 146.557L217.995 162.995C216.812 163.676 215.966 165.022 216.106 166.007C216.245 166.991 217.322 167.237 218.505 166.556L247.004 150.119C248.179 149.438 249.017 148.092 248.878 147.107C248.738 146.123 247.678 145.876 246.495 146.557Z" fill="#ACB5FF"/>
<path d="M248.204 157.119L219.704 173.556C218.521 174.237 217.716 175.559 217.913 176.511C218.11 177.463 219.228 177.676 220.411 177.003L248.91 160.566C250.085 159.885 250.882 158.563 250.685 157.611C250.488 156.659 249.387 156.438 248.212 157.119H248.204Z" fill="#ACB5FF"/>
<path d="M250.521 167.336L222.021 183.773C220.846 184.454 220.082 185.751 220.337 186.67C220.591 187.589 221.758 187.778 222.941 187.097L251.441 170.66C252.624 169.978 253.363 168.69 253.109 167.771C252.854 166.852 251.704 166.655 250.529 167.336H250.521Z" fill="#ACB5FF"/>
<path d="M253.487 177.175L184.032 217.231C182.857 217.912 182.143 219.176 182.463 220.062C182.783 220.94 184.007 221.096 185.182 220.423L254.637 180.368C255.812 179.687 256.502 178.423 256.181 177.545C255.861 176.667 254.661 176.502 253.478 177.184L253.487 177.175Z" fill="#ACB5FF"/>
<path d="M257.184 186.563L187.729 226.619C186.554 227.3 185.905 228.531 186.291 229.368C186.678 230.205 187.959 230.328 189.134 229.655L258.588 189.6C259.771 188.919 260.404 187.696 260.01 186.851C259.624 186.014 258.358 185.882 257.175 186.563H257.184Z" fill="#ACB5FF"/>
<path d="M261.719 195.525L192.264 235.58C191.089 236.261 190.498 237.459 190.966 238.255C191.434 239.051 192.782 239.133 193.957 238.452L263.411 198.397C264.594 197.716 265.153 196.526 264.684 195.738C264.216 194.942 262.893 194.844 261.71 195.525H261.719Z" fill="#ACB5FF"/>
<path d="M267.059 203.986L197.604 244.041C196.429 244.722 195.895 245.887 196.438 246.642C196.98 247.397 198.377 247.446 199.551 246.765L269.006 206.71C270.181 206.029 270.698 204.872 270.156 204.125C269.614 203.37 268.233 203.304 267.059 203.986Z" fill="#ACB5FF"/>
<path d="M273.122 212.036L203.667 252.091C202.493 252.772 202.008 253.913 202.608 254.627C203.207 255.341 204.653 255.366 205.836 254.684L275.291 214.629C276.465 213.948 276.934 212.824 276.334 212.11C275.734 211.396 274.297 211.355 273.122 212.036Z" fill="#ACB5FF"/>
<path d="M279.834 219.709L210.379 259.764C209.196 260.445 208.769 261.553 209.426 262.243C210.084 262.924 211.579 262.924 212.754 262.243L282.208 222.187C283.383 221.506 283.802 220.406 283.145 219.725C282.488 219.044 281.009 219.028 279.826 219.709H279.834Z" fill="#ACB5FF"/>
<path d="M287.179 227.029L217.724 267.084C216.549 267.765 216.163 268.849 216.878 269.505C217.593 270.153 219.129 270.129 220.312 269.448L289.767 229.392C290.941 228.711 291.319 227.645 290.605 226.988C289.89 226.34 288.362 226.356 287.187 227.029H287.179Z" fill="#ACB5FF"/>
<path d="M205.927 146.861L173.163 165.76C173.525 177.61 174.88 194.721 179.851 211.946L212.614 193.046C207.652 175.821 206.296 158.719 205.927 146.861Z" fill="#5676FF"/>
<path opacity="0.8" d="M205.927 146.861L173.163 165.76C173.525 177.61 174.88 194.721 179.851 211.946L212.614 193.046C207.652 175.821 206.296 158.719 205.927 146.861Z" fill="white"/>
</svg>
