<svg width="219" height="224" viewBox="0 0 219 224" fill="none" xmlns="http://www.w3.org/2000/svg">
<path d="M81.9589 2.14997C81.9589 2.14997 106.078 -2.68554 128.025 2.14997C141.442 5.10642 169.717 12.1171 176.388 28.0074C183.058 43.8977 150.936 57.4545 166.718 73.5745C173.527 80.5291 206.201 89.6997 204.364 134.807C202.526 179.915 154.648 207.411 88.1127 206.186C21.5774 204.96 -16.8218 145.122 8.91365 115.654C34.6491 86.1866 45.7228 86.0998 34.0605 62.1061C22.3931 38.1124 38.5933 9.02282 81.9589 2.15507V2.14997Z" fill="#5676FF"/>
<g opacity="0.7">
<path d="M81.9589 2.14997C81.9589 2.14997 106.078 -2.68554 128.025 2.14997C141.442 5.10642 169.717 12.1171 176.388 28.0074C183.058 43.8977 150.936 57.4545 166.718 73.5745C173.527 80.5291 206.201 89.6997 204.364 134.807C202.526 179.915 154.648 207.411 88.1127 206.186C21.5774 204.96 -16.8218 145.122 8.91365 115.654C34.6491 86.1866 45.7228 86.0998 34.0605 62.1061C22.3931 38.1124 38.5933 9.02282 81.9589 2.15507V2.14997Z" fill="white"/>
</g>
<path d="M146.754 65.3737H63.5595L53.1775 14.2971H157.136L146.754 65.3737Z" fill="#263238"/>
<path d="M60.9833 15.9567L45.6608 119.014H164.653L149.336 15.9567" fill="#5676FF"/>
<path d="M164.653 119.269H45.6608C45.5834 119.269 45.5163 119.238 45.4646 119.182C45.4182 119.126 45.3924 119.049 45.4027 118.978L60.7252 15.9209C60.7459 15.783 60.8749 15.6809 61.0195 15.7064C61.1589 15.7269 61.2569 15.8545 61.2363 15.9975L45.9602 118.763H164.359L149.083 15.9975C149.062 15.8596 149.16 15.7269 149.299 15.7064C149.439 15.686 149.573 15.783 149.594 15.9209L164.916 118.978C164.927 119.049 164.906 119.126 164.854 119.182C164.808 119.238 164.736 119.269 164.658 119.269H164.653Z" fill="#263238"/>
<mask id="mask0_3_196" style="mask-type:luminance" maskUnits="userSpaceOnUse" x="45" y="15" width="120" height="105">
<mask id="mask1_3_196" style="mask-type:luminance" maskUnits="userSpaceOnUse" x="45" y="15" width="120" height="105">
<path d="M60.9833 15.9567L45.6608 119.014H164.653L149.336 15.9567" fill="white"/>
</mask>
<g mask="url(#mask1_3_196)">
<path d="M164.653 119.269H45.6608C45.5834 119.269 45.5163 119.238 45.4646 119.182C45.4182 119.126 45.3924 119.049 45.4027 118.978L60.7252 15.9209C60.7459 15.783 60.8749 15.6809 61.0195 15.7064C61.1589 15.7269 61.2569 15.8545 61.2363 15.9975L45.9602 118.763H164.359L149.083 15.9975C149.062 15.8596 149.16 15.7269 149.299 15.7064C149.439 15.686 149.573 15.783 149.594 15.9209L164.916 118.978C164.927 119.049 164.906 119.126 164.854 119.182C164.808 119.238 164.736 119.269 164.658 119.269H164.653Z" fill="white"/>
</g>
</mask>
<g mask="url(#mask0_3_196)">
<g opacity="0.3">
<g opacity="0.7">
<path d="M164.658 119.014H45.6608L52.0675 75.918H158.251L164.658 119.014Z" fill="#0A0B5C"/>
</g>
</g>
</g>
<path d="M146.099 15.9567H64.2203L50.0232 119.014H160.296L146.099 15.9567Z" fill="#263238"/>
<path d="M138.009 23.8098H93.5643L93.0584 22.6865C92.7796 22.0635 92.155 21.6602 91.4632 21.6602H81.3703C80.8076 21.6602 80.3533 22.1095 80.3533 22.6661V23.8149H72.31C71.6905 23.8149 71.2311 24.3766 71.3498 24.974L77.9166 57.2703H132.408L138.974 24.974C139.098 24.3766 138.634 23.8149 138.014 23.8149L138.009 23.8098Z" fill="#BFBFBF"/>
<path d="M132.402 57.5205H77.9114C77.7875 57.5205 77.6843 57.4337 77.6584 57.3162L71.0917 25.02C71.0194 24.6574 71.1123 24.2898 71.3446 24.0038C71.5821 23.7179 71.928 23.5545 72.2997 23.5545H80.0849V22.6609C80.0849 21.9665 80.6579 21.3997 81.36 21.3997H91.4528C92.2479 21.3997 92.9655 21.8644 93.2856 22.5792L93.7192 23.5545H137.993C138.365 23.5545 138.716 23.7179 138.949 24.0038C139.186 24.2898 139.279 24.6574 139.207 25.02L132.64 57.3162C132.614 57.4337 132.511 57.5205 132.387 57.5205H132.402ZM78.1231 57.0099H132.191L138.711 24.9178C138.752 24.7085 138.701 24.494 138.561 24.3255C138.422 24.1621 138.221 24.0651 138.004 24.0651H93.5592C93.4559 24.0651 93.363 24.0038 93.3217 23.9119L92.8158 22.7886C92.5783 22.2575 92.0414 21.9103 91.4528 21.9103H81.36C80.9418 21.9103 80.6011 22.2473 80.6011 22.6609V23.8098C80.6011 23.9528 80.4875 24.0651 80.343 24.0651H72.2997C72.0829 24.0651 71.8815 24.1621 71.7421 24.3255C71.6027 24.4889 71.5511 24.7085 71.5924 24.9178L78.1179 57.0099H78.1231Z" fill="#263238"/>
<path d="M139.687 26.2863L139.119 29.0742L133.285 57.7656C133.11 58.6489 132.325 59.2872 131.411 59.2872H78.9078C77.994 59.2872 77.2093 58.6489 77.0338 57.7656L71.0607 28.3951L70.6322 26.2863C70.5134 25.6889 70.9729 25.1272 71.5924 25.1272H138.727C139.346 25.1272 139.805 25.6889 139.687 26.2863Z" fill="white"/>
<path d="M131.411 59.5425H78.9078C77.8753 59.5425 76.977 58.8174 76.7808 57.8166L70.3792 26.3373C70.3069 25.9748 70.3998 25.6021 70.6373 25.3161C70.8748 25.0353 71.2207 24.8719 71.5924 24.8719H138.727C139.098 24.8719 139.444 25.0353 139.682 25.3161C139.919 25.6021 140.012 25.9697 139.94 26.3322L133.538 57.8115C133.337 58.8123 132.444 59.5374 131.411 59.5374V59.5425ZM71.5924 25.3825C71.3756 25.3825 71.1742 25.4795 71.0348 25.6429C70.8955 25.8114 70.8387 26.0259 70.8851 26.2403L77.2867 57.7196C77.4364 58.4855 78.1179 59.037 78.9078 59.037H131.411C132.201 59.037 132.882 58.4855 133.032 57.7196L139.434 26.2403C139.475 26.031 139.418 25.8114 139.284 25.648C139.145 25.4846 138.943 25.3876 138.727 25.3876H71.5924V25.3825Z" fill="#263238"/>
<mask id="mask2_3_196" style="mask-type:luminance" maskUnits="userSpaceOnUse" x="70" y="25" width="70" height="35">
<mask id="mask3_3_196" style="mask-type:luminance" maskUnits="userSpaceOnUse" x="70" y="25" width="70" height="35">
<path d="M139.687 26.2863L139.119 29.0742L133.285 57.7656C133.11 58.6489 132.325 59.2872 131.411 59.2872H78.9078C77.994 59.2872 77.2093 58.6489 77.0338 57.7656L71.0607 28.3951L70.6322 26.2863C70.5134 25.6889 70.9729 25.1272 71.5924 25.1272H138.727C139.346 25.1272 139.805 25.6889 139.687 26.2863Z" fill="white"/>
</mask>
<g mask="url(#mask3_3_196)">
<path d="M131.411 59.5425H78.9078C77.8753 59.5425 76.977 58.8174 76.7808 57.8166L70.3792 26.3373C70.3069 25.9748 70.3998 25.6021 70.6373 25.3161C70.8748 25.0353 71.2207 24.8719 71.5924 24.8719H138.727C139.098 24.8719 139.444 25.0353 139.682 25.3161C139.919 25.6021 140.012 25.9697 139.94 26.3322L133.538 57.8115C133.337 58.8123 132.444 59.5374 131.411 59.5374V59.5425ZM71.5924 25.3825C71.3756 25.3825 71.1742 25.4795 71.0348 25.6429C70.8955 25.8114 70.8387 26.0259 70.8851 26.2403L77.2867 57.7196C77.4364 58.4855 78.1179 59.037 78.9078 59.037H131.411C132.201 59.037 132.882 58.4855 133.032 57.7196L139.434 26.2403C139.475 26.031 139.418 25.8114 139.284 25.648C139.145 25.4846 138.943 25.3876 138.727 25.3876H71.5924V25.3825Z" fill="white"/>
</g>
</mask>
<g mask="url(#mask2_3_196)">
<g opacity="0.4">
<path d="M139.119 29.0743L133.285 57.7656C133.11 58.649 132.325 59.2872 131.411 59.2872H78.9078C77.994 59.2872 77.2093 58.649 77.0338 57.7656L71.0607 28.3951L139.119 29.0743Z" fill="#5676FF"/>
</g>
</g>
<path d="M138.794 31.2494H93.2856L92.7693 30.1261C92.4854 29.5031 91.84 29.0997 91.1328 29.0997H80.7973C80.2242 29.0997 79.7544 29.5491 79.7544 30.1005V31.2443H71.515C70.8852 31.2443 70.4102 31.8009 70.5341 32.3983L77.2558 64.5975H133.053L139.775 32.3983C139.898 31.8009 139.423 31.2443 138.794 31.2443V31.2494Z" fill="#BFBFBF"/>
<path d="M133.053 64.858H77.2609C77.137 64.858 77.0338 64.7712 77.008 64.6537L70.2863 32.4545C70.214 32.1022 70.3018 31.7345 70.5341 31.4537C70.7767 31.1626 71.133 30.9941 71.5201 30.9941H79.5015V30.1057C79.5015 29.4112 80.0849 28.8495 80.8024 28.8495H91.1379C91.9433 28.8495 92.6815 29.3091 93.0068 30.024L93.4559 30.9941H138.799C139.186 30.9941 139.542 31.1626 139.785 31.4537C140.017 31.7345 140.11 32.1022 140.033 32.4545L133.311 64.6537C133.285 64.7712 133.182 64.858 133.058 64.858H133.053ZM77.4726 64.3474H132.846L139.527 32.3524C139.568 32.1481 139.516 31.9388 139.382 31.7754C139.238 31.6018 139.026 31.5047 138.799 31.5047H93.2907C93.1875 31.5047 93.0997 31.4486 93.0532 31.3567L92.537 30.2333C92.2943 29.7023 91.7419 29.3602 91.1379 29.3602H80.8024C80.3688 29.3602 80.0177 29.6972 80.0177 30.1057V31.2494C80.0177 31.3924 79.9042 31.5047 79.7596 31.5047H71.5201C71.293 31.5047 71.0762 31.6018 70.9368 31.7754C70.8025 31.9388 70.7509 32.1481 70.7922 32.3524L77.4726 64.3474Z" fill="#263238"/>
<path d="M140.513 33.8127L139.945 36.5394L133.961 65.2001C133.776 66.0784 132.975 66.7115 132.041 66.7115H78.2779C77.3435 66.7115 76.5433 66.0784 76.3575 65.2001L70.3534 36.4424L69.8062 33.8127C69.6823 33.2153 70.1572 32.6536 70.787 32.6536H139.532C140.162 32.6536 140.637 33.2153 140.513 33.8127Z" fill="white"/>
<path d="M132.041 66.9668H78.2779C77.2299 66.9668 76.3162 66.2468 76.1045 65.2511L69.5532 33.8638C69.4809 33.5063 69.5739 33.1387 69.8062 32.8579C70.0488 32.5668 70.405 32.3983 70.7871 32.3983H139.532C139.914 32.3983 140.27 32.5668 140.513 32.8579C140.745 33.1438 140.838 33.5063 140.766 33.8638L134.214 65.2511C134.003 66.2468 133.089 66.9668 132.041 66.9668ZM70.7871 32.9089C70.5599 32.9089 70.3482 33.0059 70.2037 33.1796C70.0695 33.343 70.0127 33.5574 70.0591 33.7617L76.6104 65.149C76.7705 65.9047 77.4726 66.4562 78.2779 66.4562H132.041C132.846 66.4562 133.548 65.9047 133.709 65.149L140.26 33.7617C140.301 33.5574 140.249 33.343 140.11 33.1796C139.966 33.0059 139.754 32.9089 139.532 32.9089H70.7871Z" fill="#263238"/>
<mask id="mask4_3_196" style="mask-type:luminance" maskUnits="userSpaceOnUse" x="69" y="32" width="72" height="35">
<mask id="mask5_3_196" style="mask-type:luminance" maskUnits="userSpaceOnUse" x="69" y="32" width="72" height="35">
<path d="M140.513 33.8127L139.945 36.5394L133.961 65.2001C133.776 66.0784 132.975 66.7115 132.041 66.7115H78.2779C77.3435 66.7115 76.5433 66.0784 76.3575 65.2001L70.3534 36.4424L69.8062 33.8127C69.6823 33.2153 70.1572 32.6536 70.787 32.6536H139.532C140.162 32.6536 140.637 33.2153 140.513 33.8127Z" fill="white"/>
</mask>
<g mask="url(#mask5_3_196)">
<path d="M132.041 66.9668H78.2779C77.2299 66.9668 76.3162 66.2468 76.1045 65.2511L69.5532 33.8638C69.4809 33.5063 69.5739 33.1387 69.8062 32.8579C70.0488 32.5668 70.405 32.3983 70.7871 32.3983H139.532C139.914 32.3983 140.27 32.5668 140.513 32.8579C140.745 33.1438 140.838 33.5063 140.766 33.8638L134.214 65.2511C134.003 66.2468 133.089 66.9668 132.041 66.9668ZM70.7871 32.9089C70.5599 32.9089 70.3482 33.0059 70.2037 33.1796C70.0695 33.343 70.0127 33.5574 70.0591 33.7617L76.6104 65.149C76.7705 65.9047 77.4726 66.4562 78.2779 66.4562H132.041C132.846 66.4562 133.548 65.9047 133.709 65.149L140.26 33.7617C140.301 33.5574 140.249 33.343 140.11 33.1796C139.966 33.0059 139.754 32.9089 139.532 32.9089H70.7871Z" fill="white"/>
</g>
</mask>
<g mask="url(#mask4_3_196)">
<g opacity="0.4">
<path d="M139.945 36.5394L133.961 65.2001C133.776 66.0784 132.975 66.7115 132.041 66.7115H78.2779C77.3435 66.7115 76.5433 66.0784 76.3575 65.2001L70.3534 36.4424L139.945 36.5394Z" fill="#5676FF"/>
</g>
</g>
<path d="M139.584 38.6891H93.0119L92.4853 37.5708C92.1911 36.9479 91.5354 36.5496 90.8127 36.5496H80.2346C79.646 36.5496 79.1711 36.999 79.1711 37.5504V38.6942H70.7406C70.0953 38.6942 69.61 39.2508 69.7339 39.8431L76.6156 71.9453H133.714L140.595 39.8431C140.724 39.2457 140.239 38.6942 139.589 38.6942L139.584 38.6891Z" fill="#BFBFBF"/>
<path d="M133.708 72.2006H76.6104C76.4865 72.2006 76.3833 72.1138 76.3575 71.9963L69.4757 39.8941C69.4035 39.5469 69.4912 39.1844 69.7184 38.9035C69.961 38.6023 70.3327 38.4338 70.7303 38.4338H78.9026V37.5453C78.9026 36.856 79.4963 36.2892 80.2242 36.2892H90.8023C91.6232 36.2892 92.3718 36.7487 92.7073 37.4585L93.1668 38.4287H139.578C139.976 38.4287 140.348 38.6023 140.59 38.8984C140.823 39.1793 140.91 39.5367 140.833 39.889L133.951 71.9912C133.925 72.1087 133.822 72.1955 133.698 72.1955L133.708 72.2006ZM76.8169 71.69H133.497L140.332 39.7869C140.373 39.5877 140.327 39.3886 140.193 39.2252C140.048 39.0465 139.826 38.9444 139.584 38.9444H93.0119C92.9138 38.9444 92.8209 38.8882 92.7796 38.7963L92.253 37.6781C92.0001 37.147 91.4373 36.8049 90.8127 36.8049H80.2346C79.7906 36.8049 79.4292 37.1368 79.4292 37.5504V38.6942C79.4292 38.8371 79.3156 38.9495 79.1711 38.9495H70.7406C70.4979 38.9495 70.2759 39.0516 70.1262 39.2303C69.992 39.3937 69.9455 39.5929 69.9868 39.792L76.8221 71.6951L76.8169 71.69Z" fill="#263238"/>
<path d="M140.332 40.1801H69.9765C69.3312 40.1801 68.8459 40.7366 68.9698 41.3289L75.676 72.6244C75.8618 73.5027 76.6879 74.1358 77.6429 74.1358H132.666C133.621 74.1358 134.442 73.5027 134.633 72.6244L141.339 41.3289C141.468 40.7315 140.983 40.1801 140.332 40.1801Z" fill="white"/>
<path d="M132.671 74.3911H77.6481C76.5743 74.3911 75.645 73.6712 75.4334 72.6806L68.7272 41.3851C68.6549 41.0379 68.7427 40.6753 68.9698 40.3945C69.2125 40.0932 69.5842 39.9247 69.9817 39.9247H140.337C140.735 39.9247 141.106 40.0984 141.349 40.3945C141.581 40.6753 141.669 41.0328 141.592 41.3851L134.886 72.6806C134.674 73.6712 133.739 74.3911 132.671 74.3911ZM69.9817 40.4354C69.739 40.4354 69.5171 40.5375 69.3673 40.7162C69.2331 40.8796 69.1866 41.0787 69.2279 41.2779L75.9341 72.5733C76.0942 73.329 76.8169 73.8805 77.6481 73.8805H132.671C133.502 73.8805 134.22 73.329 134.385 72.5733L141.091 41.2779C141.132 41.0787 141.086 40.8796 140.952 40.7162C140.807 40.5375 140.58 40.4354 140.337 40.4354H69.9817Z" fill="#263238"/>
<path d="M140.368 44.5969H92.728L92.1859 43.4838C91.8865 42.8659 91.2153 42.4625 90.4719 42.4625H79.6512C79.0472 42.4625 78.5619 42.9068 78.5619 43.4582V44.5969H69.9404C69.2796 44.5969 68.784 45.1535 68.913 45.7458L75.9496 77.751H134.354L141.39 45.7458C141.519 45.1535 141.024 44.5969 140.363 44.5969H140.368Z" fill="#BFBFBF"/>
<path d="M134.359 78.0063H75.9548C75.8309 78.0063 75.7276 77.9246 75.7018 77.8072L68.6652 45.7968C68.5878 45.4547 68.6756 45.0973 68.9027 44.8216C69.1505 44.5152 69.5325 44.3416 69.9455 44.3416H78.3089V43.4582C78.3089 42.7689 78.9129 42.2072 79.6563 42.2072H90.4771C91.3186 42.2072 92.0775 42.6668 92.4234 43.3714L92.8932 44.3416H140.368C140.781 44.3416 141.163 44.5152 141.411 44.8216C141.638 45.0973 141.726 45.4547 141.649 45.7968L134.612 77.8072C134.586 77.9246 134.483 78.0063 134.359 78.0063ZM76.1613 77.4957H134.152L141.143 45.6896C141.184 45.4956 141.137 45.3015 141.008 45.1432C140.859 44.9594 140.626 44.8522 140.368 44.8522H92.728C92.6299 44.8522 92.537 44.796 92.4957 44.7092L91.9536 43.5961C91.6955 43.065 91.1173 42.7229 90.4771 42.7229H79.6563C79.1969 42.7229 78.8252 43.0548 78.8252 43.4633V44.602C78.8252 44.745 78.7116 44.8573 78.567 44.8573H69.9455C69.6874 44.8573 69.4551 44.9645 69.3054 45.1483C69.1763 45.3066 69.1247 45.5007 69.1712 45.6947L76.1613 77.5008V77.4957Z" fill="#263238"/>
<path d="M141.137 46.1797H69.1763C68.5155 46.1797 68.0199 46.7363 68.149 47.3286L75.01 78.5322C75.2011 79.4053 76.0426 80.0385 77.0183 80.0385H133.301C134.276 80.0385 135.118 79.4104 135.309 78.5322L142.17 47.3286C142.299 46.7363 141.803 46.1797 141.143 46.1797H141.137Z" fill="white"/>
<path d="M133.295 80.2887H77.0131C75.9186 80.2887 74.9687 79.5687 74.7519 78.5832L67.8908 47.3797C67.8134 47.0376 67.9012 46.6801 68.1283 46.4044C68.3761 46.098 68.7582 45.9244 69.1712 45.9244H141.132C141.545 45.9244 141.927 46.098 142.175 46.4044C142.402 46.6801 142.49 47.0376 142.413 47.3797L135.552 78.5832C135.335 79.5738 134.385 80.2887 133.29 80.2887H133.295ZM69.1763 46.4351C68.9182 46.4351 68.6859 46.5423 68.5362 46.7261C68.4071 46.8844 68.3606 47.0784 68.4019 47.2725L75.263 78.476C75.4282 79.2317 76.1664 79.7781 77.0183 79.7781H133.301C134.152 79.7781 134.891 79.2317 135.056 78.476L141.917 47.2725C141.958 47.0784 141.912 46.8844 141.783 46.7261C141.633 46.5423 141.401 46.4351 141.143 46.4351H69.1815H69.1763Z" fill="#263238"/>
<path d="M141.158 50.5047H92.4544L91.902 49.3915C91.5974 48.7737 90.9107 48.3754 90.1518 48.3754H79.0885C78.4741 48.3754 77.9733 48.8197 77.9733 49.3711V50.5047H69.1557C68.4794 50.5047 67.9734 51.0561 68.1025 51.6485L75.294 83.5618H135.004L142.196 51.6485C142.33 51.0561 141.824 50.5047 141.143 50.5047H141.158Z" fill="#BFBFBF"/>
<path d="M135.015 83.8171H75.3043C75.1856 83.8171 75.0771 83.7354 75.0513 83.6179L67.8547 51.7046C67.7773 51.3676 67.865 51.0153 68.087 50.7396C68.34 50.4281 68.7323 50.2494 69.1557 50.2494H77.7152V49.3711C77.7152 48.6818 78.3296 48.1201 79.0885 48.1201H90.1519C91.0037 48.1201 91.7832 48.5746 92.1343 49.2792L92.6144 50.2494H141.158C141.587 50.2494 141.974 50.4281 142.227 50.7396C142.449 51.0153 142.536 51.3676 142.459 51.7046L135.268 83.6179C135.242 83.7354 135.139 83.8171 135.015 83.8171ZM75.5108 83.3065H134.808L141.958 51.5923C142 51.4034 141.958 51.2144 141.829 51.0612C141.679 50.8723 141.427 50.76 141.163 50.76H92.4595C92.3614 50.76 92.2737 50.7038 92.2272 50.617L91.6748 49.5039C91.4115 48.9728 90.8178 48.6307 90.157 48.6307H79.0936C78.6238 48.6307 78.2366 48.9626 78.2366 49.3711V50.5047C78.2366 50.6477 78.1231 50.76 77.9785 50.76H69.1608C68.8975 50.76 68.6446 50.8723 68.4949 51.0612C68.3658 51.2195 68.3193 51.4085 68.3658 51.5923L75.516 83.3065H75.5108Z" fill="#263238"/>
<path d="M141.943 52.1795H68.3761C67.6998 52.1795 67.1887 52.731 67.323 53.3233L69.0473 60.9774L74.3337 84.4298C74.5351 85.303 75.3921 85.931 76.3885 85.931H133.93C134.927 85.931 135.784 85.303 135.985 84.4298L138.577 72.9257L142.996 53.3233C143.13 52.731 142.619 52.1795 141.943 52.1795Z" fill="white"/>
<path d="M133.93 86.1863H76.3884C75.2785 86.1863 74.3079 85.4715 74.0808 84.486L67.07 53.3794C66.9926 53.0424 67.0803 52.6952 67.3023 52.4195C67.5553 52.108 67.9476 51.9242 68.3761 51.9242H141.943C142.371 51.9242 142.764 52.1029 143.017 52.4195C143.239 52.6952 143.321 53.0475 143.249 53.3794L136.238 84.486C136.011 85.4715 135.04 86.1863 133.93 86.1863ZM68.3761 52.4348C68.1077 52.4348 67.8599 52.5471 67.705 52.7361C67.5811 52.8944 67.5346 53.0782 67.5759 53.2671L74.5867 84.3736C74.7622 85.1294 75.5211 85.6757 76.3884 85.6757H133.93C134.803 85.6757 135.562 85.1294 135.732 84.3736L142.743 53.2671C142.784 53.0833 142.743 52.8944 142.614 52.7361C142.459 52.5471 142.211 52.4348 141.943 52.4348H68.3761Z" fill="#263238"/>
<mask id="mask6_3_196" style="mask-type:luminance" maskUnits="userSpaceOnUse" x="67" y="52" width="77" height="34">
<mask id="mask7_3_196" style="mask-type:luminance" maskUnits="userSpaceOnUse" x="67" y="52" width="77" height="34">
<path d="M141.943 52.1795H68.3761C67.6998 52.1795 67.1887 52.731 67.323 53.3233L69.0473 60.9774L74.3337 84.4298C74.5351 85.303 75.3921 85.931 76.3885 85.931H133.93C134.927 85.931 135.784 85.303 135.985 84.4298L138.577 72.9257L142.996 53.3233C143.13 52.731 142.619 52.1795 141.943 52.1795Z" fill="white"/>
</mask>
<g mask="url(#mask7_3_196)">
<path d="M133.93 86.1863H76.3884C75.2785 86.1863 74.3079 85.4715 74.0808 84.486L67.07 53.3794C66.9926 53.0424 67.0803 52.6952 67.3023 52.4195C67.5553 52.108 67.9476 51.9242 68.3761 51.9242H141.943C142.371 51.9242 142.764 52.1029 143.017 52.4195C143.239 52.6952 143.321 53.0475 143.249 53.3794L136.238 84.486C136.011 85.4715 135.04 86.1863 133.93 86.1863ZM68.3761 52.4348C68.1077 52.4348 67.8599 52.5471 67.705 52.7361C67.5811 52.8944 67.5346 53.0782 67.5759 53.2671L74.5867 84.3736C74.7622 85.1294 75.5211 85.6757 76.3884 85.6757H133.93C134.803 85.6757 135.562 85.1294 135.732 84.3736L142.743 53.2671C142.784 53.0833 142.743 52.8944 142.614 52.7361C142.459 52.5471 142.211 52.4348 141.943 52.4348H68.3761Z" fill="white"/>
</g>
</mask>
<g mask="url(#mask6_3_196)">
<g opacity="0.4">
<path d="M69.0473 60.9774L74.3337 84.4298C74.5351 85.303 75.3921 85.931 76.3885 85.931H133.93C134.927 85.931 135.784 85.303 135.985 84.4298L138.577 72.9257L69.0473 60.9774Z" fill="#5676FF"/>
</g>
</g>
<path d="M90.5855 87.0339L89.9351 85.9616C89.5737 85.3693 88.8096 85.0068 87.9888 85.0476L75.9703 85.594C75.3043 85.6246 74.7829 86.0893 74.8035 86.6305L74.8552 87.7488L65.2786 88.1828C64.5455 88.2185 64.0189 88.7853 64.1893 89.3623L73.4664 120.505L138.334 117.558L144.684 85.7063C144.803 85.114 144.225 84.5932 143.492 84.6289L90.5855 87.0339Z" fill="#BFBFBF"/>
<path d="M73.4664 120.76C73.3529 120.76 73.2496 120.683 73.2186 120.576L63.9415 89.4338C63.8486 89.1172 63.9053 88.7904 64.1067 88.5096C64.3545 88.1624 64.7881 87.9479 65.2631 87.9224L74.5816 87.4986L74.5403 86.6356C74.5093 85.9565 75.1443 85.3693 75.9496 85.3336L87.9681 84.7872C88.887 84.7464 89.7389 85.1549 90.1467 85.8289L90.7198 86.7684L143.476 84.3685C143.951 84.3481 144.405 84.5268 144.684 84.8485C144.911 85.1089 144.999 85.4306 144.937 85.7523L138.587 117.604C138.566 117.722 138.463 117.803 138.345 117.809L73.4768 120.755H73.4664V120.76ZM88.1023 85.3029C88.0662 85.3029 88.0301 85.3029 87.9939 85.3029L75.9755 85.8493C75.4489 85.8748 75.0359 86.2169 75.0565 86.6203L75.1081 87.7386C75.1081 87.805 75.0875 87.8713 75.041 87.9224C74.9946 87.9735 74.9326 88.0041 74.8603 88.0041L65.2838 88.4381C64.9637 88.4534 64.6797 88.5913 64.5197 88.8109C64.4423 88.9181 64.3648 89.0866 64.4268 89.2908L73.6471 120.239L138.107 117.308L144.421 85.6553C144.462 85.4408 144.369 85.2825 144.287 85.1855C144.111 84.9813 143.807 84.874 143.492 84.8842L90.5855 87.2892C90.4926 87.2892 90.3997 87.2484 90.3532 87.1667L89.7027 86.0944C89.4033 85.6042 88.7838 85.2978 88.092 85.2978L88.1023 85.3029Z" fill="#263238"/>
<path d="M145.634 87.6926L144.901 91.3588L139.444 118.743C139.269 119.616 138.365 120.275 137.281 120.326L74.7777 123.165C73.6936 123.216 72.7282 122.639 72.4752 121.786L63.8486 92.8345L63.4304 91.4303C63.26 90.8533 63.7866 90.2814 64.5197 90.2508L144.442 86.6152C145.18 86.5846 145.753 87.1054 145.634 87.6926Z" fill="white"/>
<path d="M74.6435 123.42C73.5026 123.42 72.501 122.777 72.2274 121.858L63.1826 91.5018C63.0897 91.1852 63.1516 90.8584 63.353 90.5776C63.6008 90.2355 64.0344 90.0159 64.5094 89.9955L144.431 86.3599C144.916 86.3395 145.36 86.5182 145.639 86.8399C145.861 87.1003 145.954 87.4169 145.887 87.7386L139.697 118.789C139.496 119.785 138.51 120.52 137.291 120.576L74.7881 123.415C74.7416 123.415 74.69 123.415 74.6435 123.415V123.42ZM144.503 86.8654C144.503 86.8654 144.467 86.8654 144.452 86.8654L64.53 90.501C64.2099 90.5163 63.926 90.6542 63.7711 90.8686C63.6937 90.9759 63.6163 91.1444 63.6782 91.3537L72.723 121.71C72.9399 122.45 73.802 122.94 74.7674 122.904L137.271 120.065C138.231 120.02 139.041 119.443 139.191 118.687L145.381 87.6364C145.422 87.4271 145.329 87.2637 145.247 87.1667C145.082 86.9727 144.803 86.8603 144.503 86.8603V86.8654Z" fill="#263238"/>
<mask id="mask8_3_196" style="mask-type:luminance" maskUnits="userSpaceOnUse" x="63" y="86" width="83" height="38">
<mask id="mask9_3_196" style="mask-type:luminance" maskUnits="userSpaceOnUse" x="63" y="86" width="83" height="38">
<path d="M145.634 87.6926L144.901 91.3588L139.444 118.743C139.269 119.616 138.365 120.275 137.281 120.326L74.7777 123.165C73.6936 123.216 72.7282 122.639 72.4752 121.786L63.8486 92.8345L63.4304 91.4303C63.26 90.8533 63.7866 90.2814 64.5197 90.2508L144.442 86.6152C145.18 86.5846 145.753 87.1054 145.634 87.6926Z" fill="white"/>
</mask>
<g mask="url(#mask9_3_196)">
<path d="M74.6435 123.42C73.5026 123.42 72.501 122.777 72.2274 121.858L63.1826 91.5018C63.0897 91.1852 63.1516 90.8584 63.353 90.5776C63.6008 90.2355 64.0344 90.0159 64.5094 89.9955L144.431 86.3599C144.916 86.3395 145.36 86.5182 145.639 86.8399C145.861 87.1003 145.954 87.4169 145.887 87.7386L139.697 118.789C139.496 119.785 138.51 120.52 137.291 120.576L74.7881 123.415C74.7416 123.415 74.69 123.415 74.6435 123.415V123.42ZM144.503 86.8654C144.503 86.8654 144.467 86.8654 144.452 86.8654L64.53 90.501C64.2099 90.5163 63.926 90.6542 63.7711 90.8686C63.6937 90.9759 63.6163 91.1444 63.6782 91.3537L72.723 121.71C72.9399 122.45 73.802 122.94 74.7674 122.904L137.271 120.065C138.231 120.02 139.041 119.443 139.191 118.687L145.381 87.6364C145.422 87.4271 145.329 87.2637 145.247 87.1667C145.082 86.9727 144.803 86.8603 144.503 86.8603V86.8654Z" fill="white"/>
</g>
</mask>
<g mask="url(#mask8_3_196)">
<g opacity="0.4">
<path d="M144.901 91.3588L139.444 118.743C139.269 119.616 138.365 120.275 137.281 120.326L74.7777 123.165C73.6936 123.216 72.7282 122.639 72.4752 121.786L63.8485 92.8345L144.901 91.3588Z" fill="#5676FF"/>
</g>
</g>
<path d="M91.9588 94.1467L91.4064 93.0234C91.0966 92.4004 90.3584 91.9664 89.522 91.9256L77.2661 91.2924C76.5846 91.2567 76.0064 91.6652 75.9806 92.2064L75.9238 93.3246L66.1562 92.8191C65.4077 92.7783 64.814 93.294 64.9327 93.8863L71.2414 125.687L137.389 129.108L147.018 98.1295C147.198 97.5576 146.661 96.9806 145.913 96.9449L91.9588 94.1569V94.1467Z" fill="#BFBFBF"/>
<path d="M137.389 129.353C137.389 129.353 137.379 129.353 137.374 129.353L71.2259 125.932C71.1071 125.927 71.009 125.84 70.9884 125.728L64.6797 93.9272C64.6178 93.6106 64.7055 93.294 64.9327 93.0387C65.2166 92.7119 65.6813 92.5383 66.1717 92.5587L75.6812 93.0489L75.7276 92.186C75.7638 91.5069 76.4659 90.9911 77.2867 91.032L89.5427 91.6652C90.4719 91.7111 91.298 92.2013 91.649 92.9059L92.1343 93.8965L145.939 96.6794C146.429 96.7049 146.873 96.9296 147.121 97.2819C147.317 97.5576 147.374 97.8844 147.276 98.1959L137.648 129.175C137.617 129.282 137.513 129.353 137.4 129.353H137.389ZM71.4582 125.432L137.204 128.833L146.775 98.0427C146.837 97.8436 146.765 97.6751 146.687 97.5729C146.527 97.3483 146.233 97.2053 145.902 97.1849L91.9484 94.3969C91.8555 94.3969 91.7729 94.3357 91.7316 94.254L91.1792 93.1306C90.9108 92.5894 90.2603 92.2115 89.5117 92.1758L77.2557 91.5426C76.7137 91.5171 76.2645 91.8183 76.2439 92.2166L76.1871 93.3349C76.1819 93.4778 76.058 93.5851 75.9135 93.5748L66.1459 93.0693C65.8103 93.054 65.5057 93.1664 65.325 93.3706C65.2424 93.4676 65.1495 93.6208 65.1908 93.8301L71.4633 125.437L71.4582 125.432Z" fill="#263238"/>
<path d="M147.782 100.279L146.212 105.324L138.396 130.477C138.133 131.324 137.147 131.896 136.042 131.835L72.2997 128.542C71.1949 128.485 70.2759 127.817 70.1004 126.949L64.7055 99.7482L63.9518 95.9441C63.8331 95.3569 64.4268 94.8412 65.1753 94.882L146.677 99.0946C147.425 99.1354 147.962 99.7073 147.782 100.279Z" fill="white"/>
<path d="M136.202 132.096C136.145 132.096 136.088 132.096 136.027 132.096L72.2842 128.802C71.071 128.741 70.0436 127.985 69.8475 127.005L63.6988 96.0003C63.6369 95.6837 63.7247 95.3671 63.9466 95.1118C64.2306 94.785 64.6952 94.6012 65.1908 94.6318L146.692 98.8444C147.188 98.8699 147.632 99.0997 147.88 99.4571C148.076 99.7329 148.128 100.055 148.029 100.361L138.644 130.559C138.36 131.473 137.348 132.101 136.202 132.101V132.096ZM65.0927 95.1322C64.7881 95.1322 64.5042 95.2446 64.3338 95.4386C64.2512 95.5356 64.1583 95.6888 64.1996 95.8931L70.3482 126.897C70.5031 127.653 71.324 128.235 72.31 128.286L136.052 131.58C137.033 131.631 137.916 131.141 138.148 130.4L147.534 100.203C147.596 100.003 147.524 99.8401 147.451 99.738C147.296 99.5133 146.992 99.3652 146.661 99.3448L65.1598 95.1322C65.1598 95.1322 65.1134 95.1322 65.0927 95.1322Z" fill="#263238"/>
<mask id="mask10_3_196" style="mask-type:luminance" maskUnits="userSpaceOnUse" x="63" y="94" width="85" height="38">
<mask id="mask11_3_196" style="mask-type:luminance" maskUnits="userSpaceOnUse" x="63" y="94" width="85" height="38">
<path d="M147.782 100.279L146.212 105.324L138.396 130.477C138.133 131.324 137.147 131.896 136.042 131.835L72.2997 128.542C71.1949 128.485 70.2759 127.817 70.1004 126.949L64.7055 99.7482L63.9518 95.9441C63.8331 95.3569 64.4268 94.8412 65.1753 94.882L146.677 99.0946C147.425 99.1354 147.962 99.7073 147.782 100.279Z" fill="white"/>
</mask>
<g mask="url(#mask11_3_196)">
<path d="M136.202 132.096C136.145 132.096 136.088 132.096 136.027 132.096L72.2842 128.802C71.071 128.741 70.0436 127.985 69.8475 127.005L63.6988 96.0003C63.6369 95.6837 63.7247 95.3671 63.9466 95.1118C64.2306 94.785 64.6952 94.6012 65.1908 94.6318L146.692 98.8444C147.188 98.8699 147.632 99.0997 147.88 99.4571C148.076 99.7329 148.128 100.055 148.029 100.361L138.644 130.559C138.36 131.473 137.348 132.101 136.202 132.101V132.096ZM65.0927 95.1322C64.7881 95.1322 64.5042 95.2446 64.3338 95.4386C64.2512 95.5356 64.1583 95.6888 64.1996 95.8931L70.3482 126.897C70.5031 127.653 71.324 128.235 72.31 128.286L136.052 131.58C137.033 131.631 137.916 131.141 138.148 130.4L147.534 100.203C147.596 100.003 147.524 99.8401 147.451 99.738C147.296 99.5133 146.992 99.3652 146.661 99.3448L65.1598 95.1322C65.1598 95.1322 65.1134 95.1322 65.0927 95.1322Z" fill="white"/>
</g>
</mask>
<g mask="url(#mask10_3_196)">
<g opacity="0.4">
<path d="M146.212 105.324L138.396 130.477C138.133 131.324 137.147 131.896 136.042 131.835L72.2997 128.542C71.1949 128.485 70.276 127.817 70.1004 126.949L64.7055 99.7482L146.212 105.324Z" fill="#5676FF"/>
</g>
</g>
<path d="M90.7869 102.291L90.1622 101.198C89.8163 100.591 89.0419 100.203 88.1849 100.203H75.6708C74.9739 100.203 74.4112 100.642 74.4112 101.178V102.291H64.4371C63.673 102.291 63.1 102.832 63.2497 103.414L71.3859 134.751H138.933L147.069 103.414C147.219 102.832 146.646 102.291 145.882 102.291H90.7869Z" fill="#BFBFBF"/>
<path d="M138.928 135.006H71.3807C71.262 135.006 71.1588 134.929 71.1329 134.812L62.9967 103.476C62.9141 103.164 62.9864 102.848 63.1929 102.587C63.4614 102.24 63.926 102.036 64.4319 102.036H74.1479V101.178C74.1479 100.499 74.8294 99.9473 75.6657 99.9473H88.1798C89.1297 99.9473 89.9918 100.392 90.3842 101.076L90.9366 102.041H145.882C146.388 102.041 146.852 102.245 147.121 102.592C147.327 102.858 147.4 103.174 147.317 103.481L139.181 134.817C139.15 134.929 139.047 135.011 138.933 135.011L138.928 135.006ZM71.5873 134.495H138.732L146.821 103.348C146.873 103.154 146.79 102.996 146.718 102.899C146.548 102.679 146.228 102.546 145.887 102.546H90.792C90.6991 102.546 90.6113 102.495 90.5649 102.419L89.9402 101.326C89.6408 100.8 88.949 100.458 88.1849 100.458H75.6708C75.1185 100.458 74.6693 100.78 74.6693 101.178V102.291C74.6693 102.434 74.5557 102.546 74.4112 102.546H64.4371C64.0964 102.546 63.7763 102.684 63.6059 102.899C63.5285 102.996 63.451 103.154 63.5027 103.348L71.5924 134.495H71.5873Z" fill="#263238"/>
<path d="M137.699 137.641H72.6146C71.484 137.641 70.5134 137.023 70.2914 136.165L62.3566 105.615C62.2068 105.033 62.7799 104.492 63.544 104.492H146.765C147.529 104.492 148.102 105.033 147.952 105.615L140.017 136.165C139.795 137.023 138.825 137.641 137.694 137.641H137.699Z" fill="white"/>
<path d="M137.699 137.896H72.6146C71.3756 137.896 70.2914 137.197 70.0385 136.231L62.1036 105.681C62.021 105.37 62.0933 105.053 62.2998 104.788C62.5682 104.441 63.0329 104.236 63.5388 104.236H146.759C147.265 104.236 147.73 104.441 147.999 104.788C148.205 105.053 148.277 105.37 148.195 105.681L140.26 136.231C140.007 137.197 138.928 137.896 137.684 137.896H137.699ZM63.544 104.752C63.2032 104.752 62.8832 104.89 62.7128 105.104C62.6353 105.202 62.5579 105.36 62.6095 105.554L70.5444 136.104C70.7354 136.844 71.6079 137.385 72.6198 137.385H137.704C138.711 137.385 139.584 136.844 139.78 136.104L147.715 105.554C147.766 105.355 147.684 105.202 147.611 105.104C147.441 104.885 147.121 104.752 146.78 104.752H63.544Z" fill="#263238"/>
<path d="M90.5081 109.731L89.8731 108.643C89.522 108.041 88.727 107.647 87.8545 107.647H75.0978C74.3905 107.647 73.8123 108.081 73.8123 108.618V109.731H63.6472C62.8677 109.731 62.2843 110.272 62.434 110.849L70.7303 142.088H139.584L147.88 110.849C148.035 110.272 147.446 109.731 146.667 109.731H90.5081Z" fill="#BFBFBF"/>
<path d="M139.584 142.349H70.7303C70.6115 142.349 70.5083 142.272 70.4825 142.16L62.1862 110.92C62.1036 110.614 62.1707 110.303 62.3772 110.042C62.6508 109.69 63.1258 109.48 63.6472 109.48H73.5542V108.623C73.5542 107.944 74.246 107.397 75.0978 107.397H87.8545C88.8199 107.397 89.6975 107.836 90.0951 108.521L90.6578 109.48H146.667C147.188 109.48 147.663 109.69 147.937 110.042C148.143 110.303 148.21 110.614 148.128 110.92L139.831 142.16C139.8 142.272 139.697 142.349 139.584 142.349ZM70.9316 141.838H139.382L147.627 110.788C147.678 110.599 147.601 110.446 147.524 110.348C147.348 110.124 147.018 109.986 146.661 109.986H90.5029C90.41 109.986 90.3274 109.935 90.2809 109.858L89.6459 108.771C89.3362 108.245 88.6341 107.903 87.8493 107.903H75.0926C74.5351 107.903 74.0653 108.229 74.0653 108.618V109.731C74.0653 109.874 73.9517 109.986 73.8072 109.986H63.642C63.2858 109.986 62.9554 110.124 62.7799 110.348C62.7076 110.446 62.6302 110.599 62.6766 110.788L70.9213 141.838H70.9316Z" fill="#263238"/>
<path d="M138.329 145.065H71.9848C70.8335 145.065 69.8423 144.452 69.6152 143.595L61.5306 113.142C61.3757 112.565 61.9642 112.023 62.7438 112.023H147.575C148.355 112.023 148.938 112.565 148.788 113.142L140.704 143.595C140.477 144.447 139.485 145.065 138.334 145.065H138.329Z" fill="white"/>
<path d="M138.329 145.32H71.9848C70.7251 145.32 69.6203 144.621 69.3673 143.661L61.2828 113.208C61.2002 112.902 61.2673 112.59 61.4738 112.33C61.7474 111.977 62.2223 111.768 62.7438 111.768H147.575C148.097 111.768 148.572 111.977 148.845 112.33C149.052 112.59 149.119 112.907 149.036 113.208L140.952 143.661C140.699 144.621 139.594 145.32 138.334 145.32H138.329ZM62.7438 112.279C62.3875 112.279 62.0571 112.416 61.8816 112.641C61.8093 112.738 61.7319 112.891 61.7784 113.08L69.8629 143.533C70.0591 144.274 70.9523 144.81 71.9796 144.81H138.324C139.356 144.81 140.244 144.274 140.441 143.533L148.525 113.08C148.577 112.891 148.499 112.738 148.422 112.641C148.246 112.416 147.916 112.279 147.56 112.279H62.7438Z" fill="#263238"/>
<path d="M151.814 180.262H58.5053L38.0822 122.976H172.237L151.814 180.262Z" fill="#5676FF"/>
<path d="M151.814 180.517H58.5053C58.3969 180.517 58.2988 180.451 58.2627 180.348L37.8395 123.063C37.8137 122.986 37.824 122.899 37.8705 122.828C37.9169 122.761 37.9996 122.721 38.0822 122.721H172.237C172.319 122.721 172.397 122.761 172.448 122.828C172.495 122.894 172.51 122.981 172.479 123.063L152.056 180.348C152.02 180.451 151.922 180.517 151.814 180.517ZM58.686 180.006H151.628L171.87 123.231H38.4435L58.686 180.006Z" fill="#263238"/>
<mask id="mask12_3_196" style="mask-type:luminance" maskUnits="userSpaceOnUse" x="38" y="122" width="135" height="59">
<mask id="mask13_3_196" style="mask-type:luminance" maskUnits="userSpaceOnUse" x="38" y="122" width="135" height="59">
<path d="M151.814 180.262H58.5053L38.0822 122.976H172.237L151.814 180.262Z" fill="white"/>
</mask>
<g mask="url(#mask13_3_196)">
<path d="M151.814 180.517H58.5053C58.3969 180.517 58.2988 180.451 58.2627 180.348L37.8395 123.063C37.8137 122.986 37.824 122.899 37.8705 122.828C37.9169 122.761 37.9996 122.721 38.0822 122.721H172.237C172.319 122.721 172.397 122.761 172.448 122.828C172.495 122.894 172.51 122.981 172.479 123.063L152.056 180.348C152.02 180.451 151.922 180.517 151.814 180.517ZM58.686 180.006H151.628L171.87 123.231H38.4435L58.686 180.006Z" fill="white"/>
</g>
</mask>
<g mask="url(#mask12_3_196)">
<g opacity="0.3">
<g opacity="0.7">
<path d="M151.814 180.262H58.5053L38.0822 122.976H172.237L151.814 180.262Z" fill="#0A0B5C"/>
</g>
</g>
</g>
<path d="M170.461 115.439H39.8581L38.0822 122.976H172.237L170.461 115.439Z" fill="#5676FF"/>
<path d="M172.237 123.231H38.0822C38.0047 123.231 37.9273 123.196 37.8808 123.134C37.8343 123.073 37.8137 122.991 37.8292 122.92L39.6051 115.383C39.6309 115.266 39.7342 115.184 39.8581 115.184H170.461C170.58 115.184 170.683 115.266 170.714 115.383L172.49 122.92C172.505 122.996 172.49 123.073 172.438 123.134C172.392 123.196 172.314 123.231 172.237 123.231ZM38.4074 122.721H171.912L170.254 115.695H40.0594L38.4022 122.721H38.4074Z" fill="#263238"/>
<path d="M72.7746 149.221L71.4633 161.451H138.85L137.544 149.221H134.571L135.417 157.953H74.8965L75.7483 149.221H72.7746Z" fill="#BFBFBF"/>
<path d="M138.85 161.706H71.4633C71.3911 161.706 71.3188 161.675 71.2723 161.619C71.2259 161.568 71.2 161.491 71.2052 161.42L72.5113 149.191C72.5268 149.063 72.6352 148.961 72.7695 148.961H75.7431C75.8154 148.961 75.8877 148.992 75.9341 149.043C75.9806 149.094 76.0064 149.165 76.0012 149.237L75.1804 157.687H135.128L134.307 149.237C134.302 149.165 134.323 149.094 134.374 149.043C134.426 148.992 134.493 148.961 134.565 148.961H137.539C137.673 148.961 137.782 149.058 137.797 149.191L139.103 161.42C139.109 161.491 139.088 161.563 139.041 161.619C138.99 161.675 138.923 161.706 138.85 161.706ZM71.7524 161.195H138.566L137.312 149.477H134.855L135.675 157.927C135.681 157.999 135.66 158.07 135.608 158.121C135.557 158.173 135.49 158.203 135.417 158.203H74.8964C74.8242 158.203 74.7519 158.173 74.7054 158.121C74.659 158.07 74.6332 157.999 74.6383 157.927L75.4592 149.477H73.0018L71.7473 161.195H71.7524Z" fill="#263238"/>
<path d="M138.344 164.264H71.9744L71.4633 161.451H138.85L138.344 164.264Z" fill="#757575"/>
<path d="M138.344 164.519H71.9744C71.8505 164.519 71.7421 164.433 71.7215 164.31L71.2155 161.502C71.2001 161.425 71.2207 161.349 71.2723 161.292C71.3188 161.236 71.3962 161.2 71.4685 161.2H138.856C138.933 161.2 139.005 161.236 139.052 161.292C139.098 161.349 139.119 161.425 139.109 161.502L138.603 164.31C138.582 164.433 138.474 164.519 138.35 164.519H138.344ZM72.1861 164.009H138.122L138.536 161.711H71.7679L72.1809 164.009H72.1861Z" fill="#263238"/>
<path d="M134.571 149.221L134.152 152.464L134.571 157.953H135.417L134.571 149.221Z" fill="#757575"/>
<path d="M135.417 158.208H134.571C134.436 158.208 134.323 158.106 134.313 157.973L133.9 152.484C133.9 152.484 133.9 152.449 133.9 152.433L134.313 149.191C134.328 149.063 134.442 148.951 134.571 148.966C134.7 148.966 134.813 149.068 134.824 149.196L135.67 157.927C135.675 157.999 135.655 158.07 135.603 158.121C135.552 158.173 135.484 158.203 135.412 158.203L135.417 158.208ZM134.808 157.698H135.133L134.535 151.529L134.416 152.469L134.813 157.698H134.808Z" fill="#263238"/>
<path d="M75.7483 149.221L76.1613 152.464L75.7483 157.953H74.8964L75.7483 149.221Z" fill="#757575"/>
<path d="M75.7483 158.208H74.9016C74.8293 158.208 74.7571 158.178 74.7106 158.127C74.6641 158.075 74.6383 158.004 74.6435 157.933L75.4901 149.201C75.5005 149.073 75.614 148.971 75.7431 148.971C75.8825 148.971 75.9857 149.063 76.0012 149.196L76.4194 152.438C76.4194 152.438 76.4194 152.474 76.4194 152.489L76.0012 157.978C75.9909 158.111 75.8773 158.213 75.7431 158.213L75.7483 158.208ZM75.1804 157.698H75.5056L75.9031 152.469L75.7844 151.524L75.1855 157.693L75.1804 157.698Z" fill="#263238"/>
<path d="M126.868 143.089H83.4457L81.3755 132.708H128.943L126.868 143.089Z" fill="white"/>
<path d="M126.868 143.344H83.4457C83.3218 143.344 83.2185 143.258 83.1927 143.14L81.1225 132.764C81.107 132.688 81.1225 132.611 81.1741 132.555C81.2206 132.494 81.298 132.463 81.3755 132.463H128.943C129.021 132.463 129.093 132.499 129.145 132.555C129.191 132.616 129.212 132.693 129.196 132.764L127.126 143.14C127.1 143.258 126.997 143.344 126.873 143.344H126.868ZM83.6573 142.834H126.656L128.629 132.969H81.6904L83.6625 142.834H83.6573Z" fill="#263238"/>
<path d="M96.0836 139.402H96.0991L96.3831 135.006H97.7047L98.0919 141.108H97.2401L96.9303 136.798H96.9148L96.6154 141.108H95.7636L94.7207 136.865H94.7052L95.0924 141.108H94.3077L93.7089 135.006H95.0305L96.0785 139.402H96.0836Z" fill="#263238"/>
<path d="M99.5013 139.152L98.0919 135.001H99.0883L99.9401 137.86H99.9556L100.544 135.001H101.453L100.425 139.152L100.508 141.103H99.6045L99.5064 139.152H99.5013Z" fill="#263238"/>
<path d="M104.148 137.794H105.345V138.662H104.153L104.173 141.103H103.27L103.167 135.001H105.686V135.915H104.127L104.142 137.794H104.148Z" fill="#263238"/>
<path d="M106.151 135.006H107.101L106.997 141.108H106.094L106.146 135.006H106.151Z" fill="#263238"/>
<path d="M107.792 135.006H108.742L108.582 140.276H110.079L110.043 141.108H107.658L107.798 135.006H107.792Z" fill="#263238"/>
<path d="M111.53 137.656H112.805L112.748 138.529H111.484L111.386 140.276H112.955L112.898 141.108H110.436L110.725 135.006H113.321L113.26 135.92H111.628L111.53 137.656Z" fill="#263238"/>
<path d="M115.201 134.929C116.125 134.929 116.548 135.517 116.445 136.528L116.424 136.727H115.536L115.562 136.466C115.603 136.017 115.448 135.843 115.144 135.843C114.839 135.843 114.659 136.017 114.622 136.466C114.586 136.921 114.746 137.258 115.304 137.814C116.011 138.519 116.207 139.019 116.14 139.699C116.047 140.638 115.536 141.169 114.653 141.169C113.771 141.169 113.347 140.638 113.42 139.699L113.445 139.331H114.313L114.277 139.755C114.24 140.179 114.411 140.327 114.7 140.327C114.989 140.327 115.185 140.179 115.221 139.755C115.263 139.321 115.108 138.999 114.55 138.453C113.833 137.748 113.626 137.237 113.678 136.523C113.75 135.512 114.271 134.924 115.201 134.924V134.929Z" fill="#263238"/>
<path d="M108.066 42.6873L107.637 41.4873C107.4 40.8235 106.739 40.3283 105.954 40.2261L94.4729 38.7607C93.8328 38.679 93.2597 39.0619 93.1874 39.6185L93.0377 40.7674L83.8896 39.6032C83.1875 39.5113 82.5887 40.0066 82.6506 40.6244L85.903 73.8857L147.864 81.7849L159.537 50.4282C159.754 49.8461 159.299 49.218 158.597 49.1312L108.056 42.6873H108.066Z" fill="white"/>
<path d="M147.869 82.0402C147.869 82.0402 147.849 82.0402 147.838 82.0402L85.8772 74.141C85.7585 74.1257 85.6656 74.0287 85.6552 73.9113L82.4028 40.6499C82.3667 40.3078 82.4957 39.9657 82.759 39.7206C83.0585 39.4347 83.4973 39.2968 83.9361 39.353L92.8312 40.4865L92.95 39.593C92.9964 39.2509 93.1874 38.9496 93.492 38.7453C93.7863 38.5462 94.1528 38.4645 94.5245 38.5156L106.006 39.981C106.889 40.0934 107.632 40.655 107.901 41.4107L108.272 42.4626L158.654 48.8861C159.093 48.9423 159.485 49.1874 159.702 49.5346C159.888 49.841 159.924 50.1984 159.805 50.5252L148.133 81.8819C148.097 81.9841 147.998 82.0504 147.89 82.0504L147.869 82.0402ZM86.1457 73.656L147.699 81.5041L159.305 50.3363C159.372 50.1575 159.351 49.9635 159.243 49.7899C159.108 49.5703 158.855 49.4172 158.571 49.3814L108.03 42.9375C107.932 42.9273 107.849 42.8609 107.818 42.769L107.39 41.569C107.183 40.992 106.61 40.5631 105.918 40.4763L94.4368 39.0109C94.189 38.9802 93.9515 39.0313 93.7605 39.1589C93.5798 39.2815 93.4662 39.4551 93.4404 39.6491L93.2907 40.798C93.27 40.9359 93.1513 41.0329 93.0016 41.0176L83.8535 39.8534C83.5644 39.8176 83.2856 39.9044 83.0998 40.078C82.9501 40.221 82.8829 40.3997 82.8984 40.5938L86.1354 73.6509L86.1457 73.656Z" fill="#263238"/>
<mask id="mask14_3_196" style="mask-type:luminance" maskUnits="userSpaceOnUse" x="82" y="38" width="78" height="44">
<mask id="mask15_3_196" style="mask-type:luminance" maskUnits="userSpaceOnUse" x="82" y="38" width="78" height="44">
<path d="M108.066 42.6873L107.637 41.4873C107.4 40.8235 106.739 40.3283 105.954 40.2261L94.4729 38.7607C93.8328 38.679 93.2597 39.0619 93.1874 39.6185L93.0377 40.7674L83.8896 39.6032C83.1875 39.5113 82.5887 40.0066 82.6506 40.6244L85.903 73.8857L147.864 81.7849L159.537 50.4282C159.754 49.8461 159.299 49.218 158.597 49.1312L108.056 42.6873H108.066Z" fill="white"/>
</mask>
<g mask="url(#mask15_3_196)">
<path d="M147.869 82.0402C147.869 82.0402 147.849 82.0402 147.838 82.0402L85.8772 74.141C85.7585 74.1257 85.6656 74.0287 85.6552 73.9113L82.4028 40.6499C82.3667 40.3078 82.4957 39.9657 82.759 39.7206C83.0585 39.4347 83.4973 39.2968 83.9361 39.353L92.8312 40.4865L92.95 39.593C92.9964 39.2509 93.1874 38.9496 93.492 38.7453C93.7863 38.5462 94.1528 38.4645 94.5245 38.5156L106.006 39.981C106.889 40.0934 107.632 40.655 107.901 41.4107L108.272 42.4626L158.654 48.8861C159.093 48.9423 159.485 49.1874 159.702 49.5346C159.888 49.841 159.924 50.1984 159.805 50.5252L148.133 81.8819C148.097 81.9841 147.998 82.0504 147.89 82.0504L147.869 82.0402ZM86.1457 73.656L147.699 81.5041L159.305 50.3363C159.372 50.1575 159.351 49.9635 159.243 49.7899C159.108 49.5703 158.855 49.4172 158.571 49.3814L108.03 42.9375C107.932 42.9273 107.849 42.8609 107.818 42.769L107.39 41.569C107.183 40.992 106.61 40.5631 105.918 40.4763L94.4368 39.0109C94.189 38.9802 93.9515 39.0313 93.7605 39.1589C93.5798 39.2815 93.4662 39.4551 93.4404 39.6491L93.2907 40.798C93.27 40.9359 93.1513 41.0329 93.0016 41.0176L83.8535 39.8534C83.5644 39.8176 83.2856 39.9044 83.0998 40.078C82.9501 40.221 82.8829 40.3997 82.8984 40.5938L86.1354 73.6509L86.1457 73.656Z" fill="white"/>
</g>
</mask>
<g mask="url(#mask14_3_196)">
<g opacity="0.4">
<path d="M108.066 42.6873L107.637 41.4873C107.4 40.8235 106.739 40.3283 105.954 40.2261L94.4729 38.7607C93.8328 38.679 93.2597 39.0619 93.1874 39.6185L93.0377 40.7674L83.8896 39.6032C83.1875 39.5113 82.5887 40.0066 82.6506 40.6244L85.903 73.8857L147.864 81.7849L159.537 50.4282C159.754 49.8461 159.299 49.218 158.597 49.1312L108.056 42.6873H108.066Z" fill="#5676FF"/>
</g>
</g>
<path d="M160.131 52.3174L149.563 80.7024L148.747 82.8878C148.427 83.7457 147.451 84.2665 146.419 84.1337L86.7084 76.5256C85.6759 76.3928 84.8654 75.6422 84.7776 74.7333L81.6026 42.3094C81.5459 41.6916 82.1447 41.2014 82.8468 41.2882L133.657 47.7679L159.191 51.0205C159.893 51.1124 160.347 51.7404 160.131 52.3174Z" fill="white"/>
<path d="M146.734 84.4095C146.62 84.4095 146.501 84.4044 146.383 84.3891L86.6723 76.7809C85.521 76.6328 84.6176 75.7852 84.5195 74.7589L81.3445 42.335C81.3135 41.9827 81.4374 41.6559 81.7007 41.4057C82.0002 41.1146 82.4338 40.9818 82.8778 41.038L159.222 50.7703C159.666 50.8265 160.053 51.0716 160.27 51.4239C160.456 51.7303 160.492 52.0877 160.373 52.4094L148.99 82.9798C148.664 83.8478 147.751 84.4146 146.734 84.4146V84.4095ZM82.6868 41.5333C82.4493 41.5333 82.217 41.6201 82.0621 41.7682C81.9124 41.9112 81.8453 42.095 81.8608 42.2839L85.0358 74.7078C85.1132 75.4942 85.8308 76.1529 86.7446 76.2703L146.455 83.8784C147.369 83.9959 148.231 83.5414 148.51 82.7959L159.893 52.2255C159.96 52.0468 159.94 51.8528 159.831 51.6843C159.697 51.4647 159.444 51.3116 159.16 51.2707L82.8158 41.5384C82.7745 41.5333 82.7332 41.5282 82.6919 41.5282L82.6868 41.5333Z" fill="#263238"/>
<mask id="mask16_3_196" style="mask-type:luminance" maskUnits="userSpaceOnUse" x="81" y="41" width="80" height="44">
<mask id="mask17_3_196" style="mask-type:luminance" maskUnits="userSpaceOnUse" x="81" y="41" width="80" height="44">
<path d="M160.131 52.3174L149.563 80.7024L148.747 82.8878C148.427 83.7457 147.451 84.2665 146.419 84.1337L86.7084 76.5256C85.6759 76.3928 84.8654 75.6422 84.7776 74.7333L81.6026 42.3094C81.5459 41.6916 82.1447 41.2014 82.8468 41.2882L133.657 47.7679L159.191 51.0205C159.893 51.1124 160.347 51.7404 160.131 52.3174Z" fill="white"/>
</mask>
<g mask="url(#mask17_3_196)">
<path d="M146.734 84.4095C146.62 84.4095 146.501 84.4044 146.383 84.3891L86.6723 76.7809C85.521 76.6328 84.6176 75.7852 84.5195 74.7589L81.3445 42.335C81.3135 41.9827 81.4374 41.6559 81.7007 41.4057C82.0002 41.1146 82.4338 40.9818 82.8778 41.038L159.222 50.7703C159.666 50.8265 160.053 51.0716 160.27 51.4239C160.456 51.7303 160.492 52.0877 160.373 52.4094L148.99 82.9798C148.664 83.8478 147.751 84.4146 146.734 84.4146V84.4095ZM82.6868 41.5333C82.4493 41.5333 82.217 41.6201 82.0621 41.7682C81.9124 41.9112 81.8453 42.095 81.8608 42.2839L85.0358 74.7078C85.1132 75.4942 85.8308 76.1529 86.7446 76.2703L146.455 83.8784C147.369 83.9959 148.231 83.5414 148.51 82.7959L159.893 52.2255C159.96 52.0468 159.94 51.8528 159.831 51.6843C159.697 51.4647 159.444 51.3116 159.16 51.2707L82.8158 41.5384C82.7745 41.5333 82.7332 41.5282 82.6919 41.5282L82.6868 41.5333Z" fill="white"/>
</g>
</mask>
<g mask="url(#mask16_3_196)">
<g opacity="0.3">
<g opacity="0.7">
<path d="M160.131 52.3174L149.563 80.7024C142.072 78.951 141.788 74.3351 140.533 71.9454C139.15 69.3106 130.379 67.9116 127.926 67.4878C125.474 67.0588 123.982 64.6079 123.982 64.6079C121.773 58.4703 133.306 53.1191 133.306 53.1191C133.079 52.2766 133.414 49.5142 133.657 47.7679L159.191 51.0205C159.893 51.1124 160.347 51.7405 160.131 52.3174Z" fill="#0A0B5C"/>
</g>
</g>
</g>
<path d="M92.8312 51.046L93.6469 71.108L100.998 72.0526L101.861 52.057L92.8312 51.046Z" fill="#5676FF"/>
<path d="M100.998 72.3079C100.998 72.3079 100.978 72.3079 100.967 72.3079L93.616 71.3633C93.4921 71.348 93.394 71.2459 93.3888 71.1182L92.5731 51.0511C92.5731 50.9745 92.5989 50.903 92.6557 50.852C92.7125 50.8009 92.7848 50.7754 92.8622 50.7856L101.897 51.7966C102.031 51.8119 102.129 51.9294 102.124 52.0621L101.262 72.0628C101.262 72.1343 101.226 72.2007 101.169 72.2467C101.122 72.2875 101.066 72.3079 101.004 72.3079H100.998ZM93.8947 70.8833L100.751 71.7616L101.592 52.2817L93.0997 51.332L93.8947 70.8833Z" fill="#263238"/>
<path d="M97.3175 69.8927C97.2917 69.8927 97.2659 69.8927 97.2401 69.8825C97.1059 69.8416 97.0284 69.6936 97.0749 69.5608C97.2556 68.9991 97.1368 68.3098 96.7445 67.6715C96.3728 67.0741 95.8307 66.5839 95.299 66.1091C95.2009 66.0223 95.1854 65.8742 95.2628 65.7721C95.3403 65.6648 95.4848 65.6342 95.5984 65.7006C96.3212 66.1091 97.1265 66.395 97.9525 66.5278C97.7718 65.7823 96.9768 65.2002 96.1973 64.7253C96.1147 64.6742 96.0682 64.5823 96.0733 64.4853C96.0785 64.3883 96.1456 64.3066 96.2334 64.2709C96.5586 64.1432 96.92 64.1228 97.2556 64.1994C97.2091 64.0972 97.142 64.0104 97.0542 63.939C97.0542 63.939 97.0439 63.9338 97.0388 63.9287C96.9303 63.8368 96.92 63.6785 97.0078 63.5713C97.0594 63.51 97.1317 63.4794 97.2143 63.4794C97.1988 63.4488 97.173 63.4079 97.1472 63.3671C97.1265 63.3313 97.1059 63.3007 97.0852 63.2649C96.8787 62.9024 96.889 62.4888 96.8942 62.1518L96.9458 58.5469C96.9458 58.4141 97.0542 58.3018 97.1885 58.2967C97.2401 58.2967 97.2917 58.3069 97.333 58.3273C97.3124 58.0924 97.2917 57.8525 97.2711 57.6227L96.9252 54.0075C96.9097 53.8697 97.0181 53.742 97.1575 53.7318C97.2969 53.7165 97.4259 53.8237 97.4363 53.9616L97.7822 57.5665C97.8286 58.0414 97.8751 58.5265 97.8906 59.0064C97.8906 59.0881 97.8596 59.1596 97.7925 59.2107C97.7305 59.2617 97.6479 59.2822 97.5705 59.2617C97.5292 59.2515 97.4931 59.2413 97.4518 59.226L97.4105 62.162C97.4105 62.448 97.4001 62.7748 97.5395 63.0199L97.5911 63.1016C97.6634 63.2139 97.7512 63.3518 97.7564 63.5305C97.7564 63.6428 97.7202 63.7551 97.6479 63.847C97.7976 64.0768 97.8648 64.3577 97.8389 64.6334C97.8286 64.7202 97.777 64.7968 97.6996 64.8376C97.6221 64.8785 97.5292 64.8734 97.4518 64.8325C97.3382 64.7662 97.2091 64.7202 97.0749 64.6947C97.8493 65.241 98.4998 65.9201 98.5101 66.8341C98.5101 66.9056 98.4791 66.9771 98.4223 67.0282C98.3655 67.0792 98.2933 67.0997 98.221 67.0894C97.6996 67.0282 97.1833 66.9158 96.6877 66.7473C96.8684 66.9567 97.0388 67.1762 97.1885 67.4162C97.6634 68.1821 97.8028 69.0247 97.5705 69.7293C97.5344 69.8365 97.4363 69.908 97.3227 69.908L97.3175 69.8927Z" fill="#263238"/>
<path d="M214.11 116.292C214.11 116.292 172.448 79.4259 169.79 77.1026C167.136 74.7793 165.195 74.8814 163.765 73.467C162.335 72.0526 161.623 71.0416 155.799 71.1437C149.981 71.2458 142.216 68.1158 140.482 67.0026C138.747 65.8895 136.295 66.7014 134.664 66.0733C133.032 65.4453 128.845 65.9967 126.29 66.0733C123.734 66.1499 123.533 63.5713 124.555 60.6404C125.577 57.7095 133.337 55.8917 134.359 56.4993C135.381 57.107 139.465 55.3862 139.465 55.3862C138.85 53.2672 139.057 48.1151 139.057 48.1151C139.057 48.1151 134.767 46.2973 133.135 45.6897C131.504 45.082 129.253 45.2863 129.253 45.2863C129.253 45.2863 129.764 42.9681 130.58 42.1103C131.396 41.2473 135.278 40.4406 139.057 37.816C142.836 35.1915 145.185 34.5838 145.794 34.7881C146.403 34.9923 150.595 36.2025 151.716 36.2025C152.836 36.2025 154.472 35.1915 156.109 35.4978C157.745 35.8042 160.704 38.3266 162.03 38.6279C163.357 38.9291 163.76 39.2049 165.505 39.2049C166.269 39.2049 169.387 41.4567 169.387 41.4567C169.387 41.4567 171.225 41.7579 173.166 42.6668C175.107 43.5757 177.146 47.921 178.065 49.3303C178.984 50.7447 179.088 54.176 179.088 54.176C179.088 54.176 181.54 55.4883 182.459 57.3061C183.378 59.1239 217.177 77.1026 217.177 77.1026C217.177 77.1026 222.52 97.7722 214.116 116.292H214.11Z" fill="white"/>
<g opacity="0.4">
<path d="M184.426 90.0313C176.961 83.424 170.765 77.9502 169.795 77.1026C167.136 74.7793 165.2 74.8814 163.77 73.467C162.34 72.0526 161.623 71.0467 155.804 71.1437C149.981 71.2458 142.222 68.1158 140.487 67.0026C138.752 65.8946 136.3 66.7014 134.664 66.0733C133.032 65.4453 128.845 65.9967 126.29 66.0733C123.74 66.1499 123.533 63.5713 124.555 60.6404C125.577 57.7146 133.337 55.8968 134.359 56.4993C135.381 57.107 139.465 55.3913 139.465 55.3913C138.85 53.2672 139.057 48.1151 139.057 48.1151C139.057 48.1151 134.767 46.2973 133.135 45.6948C131.499 45.0871 129.253 45.2914 129.253 45.2914C129.253 45.2914 129.764 42.9732 130.58 42.1103C131.396 41.2473 135.278 40.4406 139.057 37.816C142.836 35.1915 145.185 34.5838 145.794 34.783C146.408 34.9872 150.595 36.1974 151.721 36.1974C152.573 36.1974 153.724 35.6153 154.947 35.4672C153.956 36.0135 153.27 37.0552 153.455 37.6118C153.75 38.49 154.581 40.7265 154.627 40.8695C154.405 40.655 149.052 35.4263 145.593 35.697C142.604 35.9267 139.568 40.9052 140.079 44.5612C140.59 48.2172 139.351 48.2172 140.022 50.9439C140.688 53.6705 141.303 57.5103 140.28 59.0269C139.258 60.5383 137.219 57.8474 137.219 57.8474C137.219 57.8474 134.633 59.129 134.633 62.0548C134.633 64.9806 137.704 65.1849 139.558 65.4912C141.406 65.7925 148.128 69.4485 152.733 69.6425L157.338 69.8314C157.338 69.8314 154.679 66.252 155.804 66.0733C156.925 65.8946 160.296 66.2163 162.541 69.6425C164.792 73.0636 166.465 73.8346 170.58 75.5197C172.954 76.4898 179.366 83.3372 184.426 90.0313Z" fill="#5676FF"/>
</g>
<g opacity="0.4">
<path d="M204.828 70.4493C204.203 70.1582 184.178 60.8242 183.171 59.4302C182.149 58.0158 180.925 57.6941 179.8 56.29C178.68 54.8858 174.901 53.9769 174.39 52.057C173.878 50.1371 173.264 44.311 172.345 43.591C171.426 42.8659 169.898 42.1102 169.898 42.1102L171.416 45.853C171.416 45.853 167.957 41.0073 167.136 40.8746C166.32 40.7469 168.024 44.3978 167.874 44.2855C167.776 44.214 163.977 40.7112 160.838 38.0866C161.302 38.3521 161.715 38.5513 162.03 38.6228C163.362 38.924 163.765 39.1997 165.505 39.1997C166.269 39.1997 169.387 41.4516 169.387 41.4516C169.387 41.4516 171.225 41.7528 173.166 42.6617C175.102 43.5706 177.146 47.9159 178.065 49.3303C178.984 50.7447 179.088 54.176 179.088 54.176C179.088 54.176 181.54 55.4883 182.459 57.3061C183.001 58.3835 195.076 65.1287 204.828 70.4493Z" fill="#5676FF"/>
</g>
<g opacity="0.4">
<path d="M204.843 70.4541C204.843 70.4541 204.838 70.4541 204.828 70.4493H204.843V70.4541Z" fill="#5676FF"/>
</g>
<path d="M214.11 116.547C214.048 116.547 213.987 116.527 213.94 116.481C213.522 116.113 172.247 79.5893 169.625 77.2915C168.2 76.0456 166.997 75.5146 165.933 75.0499C165.04 74.6567 164.266 74.3197 163.584 73.6457L163.383 73.4466C162.092 72.1547 161.241 71.3071 155.804 71.399C150.141 71.4807 142.304 68.4732 140.342 67.2171C139.413 66.6248 138.231 66.6146 137.09 66.6095C136.176 66.6044 135.314 66.5993 134.571 66.3133C133.425 65.8691 130.859 66.0478 128.598 66.201C127.766 66.2572 126.977 66.3133 126.3 66.3338C125.376 66.3593 124.695 66.0733 124.251 65.481C123.523 64.5058 123.543 62.7595 124.313 60.5638C124.917 58.838 127.534 57.6686 129.036 57.1274C131.101 56.3819 133.786 55.8713 134.488 56.29C135.123 56.6627 137.601 55.8815 139.155 55.2483C138.659 53.2212 138.758 49.1976 138.788 48.2938C137.988 47.9568 134.467 46.4709 133.037 45.945C131.478 45.368 129.295 45.5569 129.269 45.5569C129.191 45.5671 129.109 45.5314 129.052 45.4701C128.995 45.4088 128.974 45.3271 128.995 45.2454C129.016 45.1484 129.532 42.8507 130.389 41.9469C130.761 41.5537 131.623 41.2065 132.815 40.7214C134.457 40.0576 136.703 39.1487 138.907 37.6169C142.5 35.12 145.04 34.2775 145.877 34.5532C146.594 34.7881 150.657 35.9523 151.716 35.9523C152.118 35.9523 152.635 35.7991 153.177 35.6357C154.08 35.3651 155.102 35.0587 156.15 35.2527C157.079 35.4264 158.349 36.2331 159.573 37.0144C160.569 37.6526 161.514 38.2551 162.082 38.3828C162.428 38.4594 162.712 38.5411 162.97 38.6075C163.703 38.8066 164.235 38.9496 165.494 38.9496C166.284 38.9496 168.85 40.7623 169.48 41.2167C169.821 41.278 171.488 41.6048 173.264 42.4371C174.844 43.1775 176.444 46.0114 177.503 47.8853C177.807 48.4215 178.065 48.8861 178.272 49.1976C179.119 50.5048 179.299 53.3489 179.33 54.0331C179.862 54.3395 181.844 55.5547 182.681 57.204C183.326 58.4856 203.734 69.6783 217.291 76.8881C217.414 76.9545 217.461 77.1077 217.394 77.2353C217.327 77.3579 217.172 77.4038 217.043 77.3375C213.574 75.4942 183.145 59.2669 182.216 57.4287C181.344 55.7028 178.979 54.4212 178.953 54.4058C178.871 54.365 178.819 54.2782 178.819 54.1914C178.819 54.1556 178.711 50.8111 177.838 49.4733C177.627 49.1516 177.363 48.6819 177.053 48.1355C176.026 46.3177 174.472 43.5706 173.042 42.8966C171.158 42.0133 169.351 41.7069 169.33 41.7069C169.289 41.7018 169.253 41.6865 169.222 41.6609C167.957 40.7469 165.964 39.4602 165.494 39.4602C164.168 39.4602 163.579 39.3019 162.836 39.0977C162.583 39.0262 162.304 38.9547 161.968 38.8781C161.313 38.73 160.332 38.102 159.294 37.4382C158.164 36.7182 156.883 35.9012 156.057 35.748C155.128 35.5744 154.173 35.8655 153.326 36.1208C152.743 36.2944 152.196 36.4629 151.716 36.4629C150.544 36.4629 146.305 35.2323 145.711 35.0332C145.221 34.8698 142.996 35.3957 139.201 38.0305C136.951 39.593 134.674 40.5172 133.012 41.1912C131.922 41.6303 131.065 41.9775 130.766 42.2941C130.182 42.9068 129.754 44.3621 129.584 45.0208C130.291 44.9901 131.927 44.9799 133.223 45.4599C134.844 46.0624 139.114 47.87 139.155 47.8904C139.253 47.9313 139.315 48.0283 139.31 48.1355C139.31 48.1866 139.114 53.2723 139.707 55.3249C139.744 55.4475 139.682 55.5802 139.558 55.6313C139.129 55.81 135.319 57.3776 134.22 56.724C133.832 56.4942 131.638 56.7291 129.207 57.6074C126.791 58.4754 125.18 59.6141 124.793 60.7323C124.096 62.7339 124.049 64.3577 124.659 65.1798C124.994 65.6291 125.536 65.8538 126.274 65.8231C126.946 65.8027 127.725 65.7517 128.551 65.6955C130.864 65.5372 133.492 65.3585 134.746 65.8436C135.402 66.0938 136.218 66.0989 137.085 66.1091C138.303 66.1193 139.558 66.1244 140.616 66.7984C142.16 67.789 149.919 71.0008 155.789 70.8986C161.447 70.8067 162.407 71.7667 163.744 73.0994L163.946 73.2985C164.56 73.9061 165.288 74.2278 166.14 74.6006C167.183 75.0601 168.478 75.6269 169.96 76.9239C172.583 79.2216 213.863 115.746 214.281 116.113C214.389 116.205 214.394 116.369 214.301 116.476C214.25 116.532 214.178 116.563 214.11 116.563V116.547Z" fill="#263238"/>
<path d="M139.057 48.3704C139.057 48.3704 139.036 48.3704 139.026 48.3704C138.887 48.3551 138.783 48.2274 138.799 48.0845C139.021 46.2258 139.109 44.0404 138.861 43.7494C138.768 43.6421 138.783 43.4787 138.892 43.3868C139 43.2949 139.165 43.3102 139.253 43.4175C139.764 44.0098 139.429 47.1858 139.315 48.1406C139.3 48.2683 139.186 48.3653 139.057 48.3653V48.3704Z" fill="#263238"/>
<path d="M159.139 44.8165C159.088 44.8165 159.041 44.8012 158.995 44.7757C158.442 44.4132 151.767 38.8219 151.483 38.582C151.375 38.49 151.359 38.3318 151.452 38.2245C151.545 38.1173 151.71 38.102 151.819 38.1939C154.214 40.2006 158.861 44.0762 159.284 44.3519C159.403 44.4285 159.434 44.5868 159.356 44.7042C159.305 44.7808 159.222 44.8165 159.139 44.8165Z" fill="#263238"/>
<path d="M169.351 45.5774C169.304 45.5774 169.258 45.5671 169.217 45.5365C167.637 44.5663 164.003 41.5384 161.349 39.3275C159.759 38.005 158.386 36.8612 158.04 36.6467C157.921 36.5701 157.885 36.4119 157.957 36.2944C158.035 36.177 158.195 36.1412 158.313 36.2127C158.69 36.4476 160.007 37.5454 161.679 38.9343C164.323 41.135 167.936 44.1476 169.49 45.1025C169.609 45.1791 169.65 45.3323 169.573 45.4548C169.526 45.5314 169.439 45.5774 169.356 45.5774H169.351Z" fill="#263238"/>
<path d="M179.082 54.4314C179.036 54.4314 178.995 54.4211 178.953 54.3956C178.824 54.319 178.654 54.2271 178.463 54.125C177.219 53.4459 176.088 52.7821 175.907 52.1234C175.871 51.9855 175.949 51.8477 176.088 51.8119C176.227 51.7762 176.367 51.8528 176.403 51.9906C176.542 52.4961 177.952 53.2672 178.711 53.6808C178.907 53.788 179.077 53.8799 179.211 53.9616C179.335 54.0331 179.377 54.1914 179.304 54.3139C179.258 54.3956 179.17 54.4416 179.082 54.4416V54.4314Z" fill="#263238"/>
<path d="M139.465 58.1027C139.423 58.1027 139.387 58.0925 139.351 58.0772C139.222 58.0159 139.171 57.8627 139.238 57.7351C139.537 57.1427 139.325 55.8866 139.217 55.4526C139.181 55.3147 139.269 55.1769 139.408 55.1462C139.547 55.1156 139.687 55.1973 139.718 55.3352C139.733 55.4067 140.146 57.0866 139.697 57.9699C139.651 58.0618 139.563 58.1129 139.465 58.1129V58.1027Z" fill="#263238"/>
<path d="M134.627 65.2359C134.571 65.2359 134.514 65.2155 134.467 65.1798C132.103 63.3364 133.079 60.5434 133.089 60.5179C133.135 60.3851 133.285 60.3187 133.419 60.3647C133.554 60.4106 133.626 60.5587 133.574 60.6915C133.538 60.7936 132.717 63.1679 134.782 64.7815C134.896 64.8683 134.911 65.0317 134.824 65.1389C134.772 65.2002 134.695 65.2359 134.622 65.2359H134.627Z" fill="#263238"/>
<path d="M141.236 38.6432C141.236 38.6432 141.215 38.6432 141.199 38.6432C141.06 38.6228 140.957 38.4951 140.977 38.3573C140.988 38.2909 141.205 36.708 142.413 35.5182C142.516 35.4161 142.676 35.4161 142.779 35.5182C142.882 35.6204 142.882 35.7787 142.779 35.8808C141.7 36.948 141.494 38.4134 141.489 38.4287C141.473 38.5564 141.359 38.6483 141.23 38.6483L141.236 38.6432Z" fill="#263238"/>
<path d="M134.627 46.5322C134.596 46.5322 134.56 46.5271 134.529 46.5118C132.33 45.608 131.752 43.734 131.726 43.6574C131.685 43.5247 131.762 43.3817 131.902 43.3409C132.036 43.3 132.18 43.3766 132.222 43.5145C132.222 43.5298 132.764 45.2403 134.726 46.042C134.855 46.0982 134.922 46.2463 134.865 46.3739C134.824 46.4709 134.726 46.5322 134.627 46.5322Z" fill="#263238"/>
<path d="M162.541 72.599C162.454 72.599 162.371 72.5582 162.325 72.4816C160.926 70.2859 158.014 67.1405 157.983 67.1099C157.885 67.0078 157.895 66.8444 157.998 66.7474C158.102 66.6504 158.267 66.6606 158.365 66.7627C158.396 66.7933 161.333 69.9693 162.758 72.2058C162.836 72.3233 162.8 72.4816 162.676 72.5582C162.634 72.5837 162.588 72.599 162.536 72.599H162.541Z" fill="#263238"/>
<path d="M19.7085 206.987C19.7085 206.987 53.0587 185.307 55.1031 182.508C57.1475 179.71 58.7788 178.439 58.7788 178.439C58.7788 178.439 59.7339 170.361 62.181 166.184C64.6332 162.007 65.5831 158.913 66.6724 156.758C67.7617 154.603 72.9346 152.99 74.4318 152.178C75.9289 151.371 78.5154 149.753 80.0125 149.753C81.5096 149.753 83.2804 150.697 83.2804 150.697C83.2804 150.697 88.3191 148.139 90.6319 149.753C90.6319 149.753 96.352 150.023 97.7098 149.885C99.0727 149.753 101.112 150.692 101.112 150.692C101.112 150.692 104.514 148.277 106.832 149.216C109.145 150.156 110.25 150.559 110.312 151.907C110.374 153.255 109.739 157.836 109.739 157.836H108.603C108.603 157.836 104.793 162.737 104.38 163.723C103.972 164.703 101.793 170.09 101.793 170.09C101.793 170.09 104.653 167.935 106.424 166.322C108.195 164.708 111.324 161.609 114.591 160.802C117.859 159.995 120.172 161.803 120.172 163.728C120.172 163.728 116.362 166.73 115.541 167.675C114.726 168.62 113.249 171.04 111.602 172.791C109.955 174.543 106.145 181.814 102.878 185.317C99.6096 188.82 85.3145 196.361 82.0466 197.439C82.0466 197.439 62.1655 211.174 53.4562 222.755C53.4562 222.755 29.7703 222.888 19.6982 206.997L19.7085 206.987Z" fill="white"/>
<g opacity="0.4">
<path d="M84.3801 194.467C84.664 194.753 85.8256 194.926 87.4621 194.957C85.0563 196.177 83.0533 197.102 82.0621 197.428C82.0621 197.428 69.0627 206.41 59.481 215.974C62.7798 210.781 69.1143 204.301 71.4684 202.953C74.7467 201.064 81.045 194.967 81.045 194.967C81.045 194.967 83.4353 193.522 84.3801 194.467Z" fill="#5676FF"/>
</g>
<g opacity="0.4">
<path d="M106.435 166.322C107.514 165.336 109.093 163.805 110.905 162.579C108.303 165.275 106.858 168.747 106.858 168.747C106.228 172.133 100.322 179.113 100.322 179.113C102.227 173.057 100.591 171.842 101.127 170.09C101.659 168.344 102.01 164.045 102.01 164.045C102.01 164.045 103.043 162.283 104.132 161.88C105.221 161.471 108.081 154.338 108.613 153.373C109.15 152.408 105.087 150.835 103.998 150.702C102.909 150.564 102.501 152.449 100.322 153.373C98.1435 154.292 95.4073 155.992 94.4006 156.983C93.4301 157.943 91.6438 162.354 91.5302 162.625C91.6077 162.319 92.8415 157.402 93.1616 156.421C93.4301 155.604 96.0475 154.098 97.018 153.562C95.4073 154.302 94.5039 152.898 93.1616 151.621C91.7212 150.253 89.5736 149.819 87.2246 150.529C84.8757 151.238 83.3011 152.99 83.2908 152.857C83.2804 152.719 79.7802 152.117 78.6599 152.449C77.5396 152.786 74.9016 153.955 74.9016 153.955C74.9016 153.955 72.5165 152.597 68.5981 156.421C66.9615 158.019 61.515 170.228 62.3307 168.747C63.1257 167.313 66.7034 162.926 66.9254 162.656C66.6724 163.228 59.45 179.271 57.9735 180.267C56.4764 181.283 56.0685 184.903 50.7614 187.87C45.7124 190.683 26.2392 202.79 24.3083 203.99C33.5287 197.934 53.5388 184.663 55.1031 182.513C57.1475 179.715 58.7789 178.444 58.7789 178.444C58.7789 178.444 59.7339 170.361 62.1862 166.189C64.6384 162.012 65.5883 158.913 66.6776 156.758C67.7669 154.603 72.9398 152.99 74.4369 152.183C75.9392 151.371 78.5257 149.758 80.0228 149.758C81.52 149.758 83.2908 150.702 83.2908 150.702C83.2908 150.702 88.3294 148.139 90.6423 149.758C90.6423 149.758 96.3624 150.028 97.7202 149.89C99.0831 149.758 101.127 150.702 101.127 150.702C101.127 150.702 104.53 148.282 106.842 149.221C109.16 150.161 110.26 150.564 110.322 151.912C110.384 153.26 109.749 157.836 109.749 157.836H108.613C108.613 157.836 104.803 162.743 104.395 163.723C103.988 164.703 101.809 170.09 101.809 170.09C101.809 170.09 104.664 167.935 106.435 166.322Z" fill="#5676FF"/>
</g>
<g opacity="0.4">
<path d="M120.188 163.723C120.188 163.723 116.378 166.725 115.557 167.67C115.066 168.237 114.338 169.34 113.471 170.509C114.153 168.385 114.344 166.322 114.344 166.322C114.344 166.322 115.567 164.438 117.612 163.764C118.432 163.493 119.362 163.483 120.177 163.57C120.188 163.621 120.188 163.672 120.188 163.723Z" fill="#5676FF"/>
</g>
<path d="M53.4717 223C53.4201 223 53.3633 222.985 53.3168 222.949C53.2033 222.862 53.1775 222.704 53.2652 222.591C61.9022 211.108 81.7162 197.357 81.9175 197.219C81.9381 197.204 81.9588 197.194 81.9846 197.188C85.2267 196.121 99.4961 188.58 102.707 185.138C104.597 183.116 106.713 179.746 108.412 177.045C109.656 175.069 110.73 173.363 111.432 172.613C112.444 171.535 113.399 170.187 114.168 169.105C114.638 168.441 115.046 167.864 115.366 167.501C116.125 166.628 119.31 164.096 119.93 163.6C119.888 162.891 119.496 162.196 118.835 161.686C117.792 160.879 116.274 160.644 114.669 161.042C111.742 161.767 108.944 164.351 107.09 166.062L106.61 166.501C104.85 168.104 101.99 170.264 101.964 170.289C101.871 170.361 101.742 170.361 101.649 170.289C101.556 170.218 101.52 170.095 101.566 169.993C101.587 169.937 103.75 164.596 104.153 163.621C104.571 162.62 108.252 157.876 108.407 157.677C108.453 157.616 108.531 157.575 108.613 157.575H109.522C109.646 156.646 110.115 153.056 110.064 151.918C110.012 150.774 109.052 150.386 106.956 149.538L106.744 149.451C104.592 148.578 101.308 150.876 101.272 150.901C101.195 150.952 101.096 150.963 101.014 150.927C100.993 150.917 99.0211 150.018 97.7459 150.141C96.3779 150.273 90.8642 150.018 90.6268 150.008C90.5803 150.008 90.5287 149.987 90.4925 149.962C88.3294 148.45 83.4559 150.896 83.4095 150.922C83.332 150.963 83.2443 150.958 83.1668 150.922C83.1514 150.912 81.4374 150.008 80.0228 150.008C78.8406 150.008 76.8427 151.126 75.3817 151.948C75.0874 152.117 74.8086 152.27 74.5608 152.403C74.184 152.607 73.5799 152.862 72.883 153.153C70.8128 154.021 67.6843 155.334 66.9099 156.876C66.5434 157.596 66.1975 158.423 65.7948 159.378C65.0101 161.231 64.0395 163.539 62.4081 166.317C60.0127 170.397 59.0473 178.393 59.037 178.475C59.0266 178.541 58.9957 178.602 58.9389 178.643C58.9234 178.653 57.3075 179.93 55.3148 182.662C53.2704 185.465 21.216 206.318 19.853 207.207C19.7343 207.283 19.5743 207.253 19.4968 207.135C19.4194 207.018 19.4504 206.86 19.5691 206.783C19.9047 206.568 52.9038 185.097 54.8966 182.365C56.6983 179.894 58.1748 178.612 58.5362 178.311C58.6601 177.315 59.6307 170.029 61.959 166.062C63.5697 163.314 64.5403 161.022 65.3147 159.184C65.7225 158.219 66.0736 157.386 66.4453 156.651C67.3074 154.94 70.4153 153.638 72.6817 152.689C73.3683 152.403 73.9568 152.152 74.313 151.964C74.5557 151.831 74.8293 151.678 75.1236 151.514C76.7136 150.621 78.6961 149.507 80.0177 149.507C81.3393 149.507 82.8519 150.202 83.2856 150.421C84.0858 150.033 88.4636 148.032 90.7197 149.513C91.3908 149.543 96.445 149.768 97.6892 149.645C98.9127 149.518 100.601 150.202 101.091 150.416C101.742 149.982 104.741 148.103 106.935 148.992L107.147 149.079C109.382 149.982 110.508 150.442 110.575 151.907C110.637 153.26 110.028 157.693 110.002 157.882C109.986 158.009 109.873 158.101 109.744 158.101H108.737C107.405 159.817 104.932 163.09 104.628 163.83C104.323 164.56 103.027 167.757 102.392 169.324C103.363 168.574 105.066 167.231 106.254 166.143L106.729 165.704C108.618 163.958 111.478 161.318 114.535 160.562C116.295 160.128 117.973 160.394 119.145 161.298C119.966 161.931 120.441 162.819 120.441 163.733C120.441 163.81 120.404 163.886 120.343 163.932C120.306 163.963 116.538 166.93 115.748 167.844C115.448 168.191 115.046 168.752 114.581 169.411C113.807 170.504 112.836 171.867 111.804 172.97C111.138 173.68 110.074 175.37 108.845 177.326C107.132 180.047 105.005 183.438 103.079 185.495C99.7542 189.06 85.6036 196.525 82.1756 197.674C81.2928 198.291 62.1035 211.705 53.6731 222.913C53.6214 222.98 53.544 223.015 53.4666 223.015L53.4717 223Z" fill="#263238"/>
<path d="M100.988 178.02C100.952 178.02 100.916 178.015 100.885 178C100.756 177.944 100.694 177.79 100.756 177.663C102.335 174.139 101.561 170.182 101.556 170.141C101.53 170.003 101.618 169.871 101.757 169.84C101.897 169.815 102.031 169.901 102.062 170.039C102.098 170.208 102.878 174.201 101.226 177.867C101.184 177.964 101.086 178.02 100.988 178.02Z" fill="#263238"/>
<path d="M96.4966 154.052C96.3934 154.052 96.3004 153.991 96.2591 153.894C96.2075 153.766 96.2695 153.613 96.3985 153.562C96.4192 153.551 98.701 152.607 100.947 150.513C101.05 150.416 101.215 150.421 101.313 150.524C101.411 150.626 101.406 150.789 101.303 150.886C98.9798 153.051 96.6928 153.996 96.5947 154.031C96.5637 154.047 96.5276 154.052 96.4966 154.052Z" fill="#263238"/>
<path d="M108.613 158.091C108.572 158.091 108.536 158.081 108.5 158.065C108.371 158.004 108.319 157.851 108.386 157.723C108.391 157.708 109.114 156.268 109.243 154.986C109.259 154.848 109.388 154.741 109.527 154.757C109.666 154.772 109.775 154.894 109.759 155.037C109.62 156.416 108.882 157.892 108.851 157.953C108.804 158.04 108.716 158.096 108.618 158.096L108.613 158.091Z" fill="#263238"/>
<path d="M86.0785 151.56C86.0062 151.56 85.9391 151.529 85.8875 151.473C85.7946 151.366 85.7997 151.208 85.9082 151.111C87.8699 149.375 90.5442 149.492 90.6526 149.497C90.7971 149.502 90.9055 149.625 90.8952 149.763C90.89 149.901 90.7661 150.018 90.6267 150.003C90.6009 150.003 88.0506 149.895 86.2489 151.489C86.1973 151.529 86.1405 151.555 86.0785 151.555V151.56Z" fill="#263238"/>
<path d="M74.0291 155.267C73.8845 155.267 73.771 155.15 73.771 155.012C73.771 154.292 76.2542 152.331 77.772 152.331C79.1297 152.331 83.1359 150.488 83.1772 150.467C83.3062 150.406 83.4611 150.467 83.5179 150.59C83.5799 150.718 83.5179 150.871 83.394 150.932C83.2236 151.009 79.2381 152.842 77.772 152.842C76.4245 152.842 74.3337 154.649 74.2872 155.017C74.2872 155.16 74.1736 155.272 74.0291 155.272V155.267Z" fill="#263238"/>
<path d="M58.7789 178.694C58.7272 178.694 58.6808 178.679 58.6343 178.648C58.5156 178.572 58.4846 178.413 58.5672 178.296C58.5878 178.27 60.3999 175.595 61.4634 172.5C61.5099 172.368 61.6544 172.296 61.7886 172.342C61.9229 172.388 61.9951 172.531 61.9487 172.664C60.8594 175.824 59.0112 178.556 58.9905 178.582C58.9389 178.653 58.8615 178.694 58.7737 178.694H58.7789Z" fill="#263238"/>
<path d="M88.9386 167.721C88.8973 167.721 88.856 167.711 88.8147 167.69C88.6908 167.624 88.6444 167.471 88.7115 167.343C88.7528 167.267 92.8002 159.858 93.6675 157.739C94.5916 155.492 97.2039 154.787 97.3123 154.762C97.4517 154.726 97.5911 154.808 97.6272 154.946C97.6634 155.083 97.5808 155.221 97.4414 155.257C97.4156 155.262 94.9685 155.926 94.1425 157.933C93.2597 160.077 89.3258 167.282 89.1606 167.588C89.1142 167.675 89.0264 167.721 88.9335 167.721H88.9386Z" fill="#263238"/>
<path d="M77.7048 166.577C77.6635 166.577 77.6222 166.567 77.5809 166.547C77.457 166.48 77.4106 166.327 77.4777 166.199C77.5396 166.087 83.6057 154.951 84.1374 153.7C84.1942 153.572 84.3439 153.511 84.473 153.562C84.602 153.618 84.664 153.766 84.6124 153.899C84.0703 155.175 78.1798 165.985 77.932 166.445C77.8855 166.531 77.7978 166.577 77.7048 166.577Z" fill="#263238"/>
</svg>
